<?xml version="1.0" encoding="utf-8"?>
<svg version="1.1" xmlns:xlink="http://www.w3.org/1999/xlink" width="12px" height="19px" xmlns="http://www.w3.org/2000/svg">
  <g transform="matrix(1 0 0 1 -349 -288 )">
    <path d="M 1.0625 17.5234375  L 9.11875 9.5  L 1.0625 1.4765625  C 0.900139854561386 1.32880514508385  0.807592724469206 1.11944765204822  0.807592724469206 0.899918490525958  C 0.807592724469206 0.469308974642261  1.15667070858551 0.120230990525958  1.58728022446921 0.120230990525958  C 1.80526950794991 0.120230990525958  2.01330422109479 0.211488770316373  2.1609375 0.371875000000001  L 10.7671875 8.934375  L 10.7828125 8.9484375  C 10.9291792545869 9.09467675406294  11.011417967767 9.29309628742533  11.011417967767 9.5  C 11.011417967767 9.70690371257468  10.9291792545869 9.90532324593707  10.7828125 10.0515625  C 10.7828125 10.0515625  10.7703125 10.059375  10.7671875 10.065625  L 2.1609375 18.628125  C 2.01330422109479 18.7885112296836  1.80526950794991 18.8797690094741  1.5872802244692 18.8797690094741  C 1.15667070858551 18.8797690094741  0.807592724469201 18.5306910253577  0.807592724469201 18.1000815094741  C 0.807592724469201 17.8805523479518  0.900139854561383 17.6711948549162  1.0625 17.5234375  Z " fill-rule="nonzero" fill="#cccccc" stroke="none" transform="matrix(1 0 0 1 349 288 )" />
  </g>
</svg>