<?xml version="1.0" encoding="utf-8"?>
<svg version="1.1" xmlns:xlink="http://www.w3.org/1999/xlink" width="22px" height="22px" xmlns="http://www.w3.org/2000/svg">
  <g transform="matrix(1 0 0 1 -10 -237 )">
    <path d="M 21.9801945 3.77796033534635  C 21.9801945 3.98861021375204  21.9015445429688 4.19981009212072  21.7409446289062 4.3609600168255  L 10.30315034375 15.7982035110043  L 6.18200240625 15.7982035110043  L 6.18200240625 11.6770558507734  L 17.6192466914063 0.239262335147252  C 17.7738886097831 0.084942022289575  17.9837803006662 -0.00119276761882799  18.202246390625 1.24801501340168E-05  C 18.4134462832031 1.24801501340168E-05  18.6240961757813 0.0786624318898475  18.7852461113281 0.239262335147252  L 21.7409446289063 3.19496067535158  C 21.9015445429688 3.35611057857198  21.9801945 3.56676045697767  21.9801945 3.77796033534635  Z M 18.202246390625 2.40351111531873  L 8.242301375 12.3634554608428  L 8.242301375 13.7379046808704  L 9.6162006875 13.7379046808704  L 19.576145703125 3.77741033538336  L 18.202246390625 2.40406111528173  Z M 11.6439326555993 2.40406111528173  C 11.6439326555993 2.96019461166514  11.2027369427015 3.41604486026887  10.646900171875 3.4342105303487  L 2 3.4342105303487  L 2 20  L 18.54599621875 20  L 18.54599621875 11.3338560457388  C 18.54599621875 10.7649202337502  19.0072098528586 10.3037066306718  19.576145703125 10.3037066306718  C 20.1450815533914 10.3037066306718  20.6062951875 10.7649202337502  20.6062951875 11.3338560457388  L 20.6062951875 20.6068507812305  C 20.605991516851 21.3654195710335  19.990964776622 21.9802000621149  19.232395875 22  L 1.3739048125 22  C 0.615121174403238 21.9802000013321  0 21.3650843683136  0 20.6063007812675  L 0 2.74781092027938  C 0 1.98902733323327  0.615121174403238 1.37391170021476  1.3739048125 1.37391170021476  L 10.646900171875 1.37391170021476  C 11.2027369427015 1.39207737029458  11.6439326555993 1.84792761889831  11.6439326555993 2.40406111528173  Z " fill-rule="nonzero" fill="#555555" stroke="none" transform="matrix(1 0 0 1 10 237 )" />
  </g>
</svg>