<?xml version="1.0" encoding="utf-8"?>
<svg version="1.1" xmlns:xlink="http://www.w3.org/1999/xlink" width="16px" height="22px" xmlns="http://www.w3.org/2000/svg">
  <g transform="matrix(1 0 0 1 -317 -88 )">
    <path d="M 7.99965387959559 21.5006030865885  C 4.24918116084559 21.5006030865885  0.464810500919117 20.5096203903809  0.464810500919117 18.295832259196  C 0.464810500919117 16.5676646156413  3.05665230055147 15.4957557062988  5.46539750551471 15.2314234352214  L 5.59724692922794 15.2166329621582  L 2.26825975919118 10.0246294709473  C 2.16091983731618 9.8373466944987  2.05963696966912 9.63864449291992  1.97031682904412 9.43758256396484  L 1.88251094669118 9.26462673608398  L 1.86870948805147 9.19543597159831  C 1.57606649356618 8.45734505859375  1.42788459650735 7.68478520157877  1.42788459650735 6.89977351554362  C 1.42788459650735 3.37068681013997  4.3765526875 0.499396892822265  8.00058406893382 0.499396892822265  C 11.6245072784926 0.499396892822265  14.5726561994485 3.37068683072917  14.5726561994485 6.89977351554362  C 14.5726561994485 7.68554368684896  14.4241498290441 8.45776643701172  14.130706421875 9.19543597159831  L 14.0866845064338 9.30638557202148  L 14.0907946571691 9.30638557202148  L 14.0568966948529 9.3743332434082  C 13.9610219347426 9.59452586783854  13.8549583226103 9.80599590136719  13.7397874503676 10.0064046999512  L 7.99690656341912 19.2891536200358  L 6.63666174540441 17.1253834117839  L 6.58528481893382 17.1297446969401  C 4.38193914797794 17.3136774881999  2.97676387224265 17.9060127293294  2.60825607536765 18.2358065267741  L 2.5416932086397 18.2954740690104  L 2.60825607536765 18.355478718099  C 3.0889494586397 18.790407089681  4.93732919577206 19.4783115160319  7.86756650735294 19.4986010124512  L 8.12918865349265 19.4990223908691  C 11.0536717371323 19.4786486228841  12.9057722527574 18.7923032925618  13.3904892619485 18.3582598238932  L 13.4587610836397 18.2971595826823  L 13.3893211029412 18.237492040446  C 13.1203655716912 18.00541646639  12.1404831056985 17.5475228474935  10.6333327215074 17.2787239157715  L 11.7908171286765 15.4735489030762  C 14.2059871764706 16.0036251020508  15.5351894990809 17.0045734616699  15.5351894990809 18.2958111552734  C 15.5351894990809 20.5097257041016  11.7508188391544 21.500581982666  7.99987020220588 21.500581982666  Z M 7.99952408180147 3.4470410694987  C 6.45460353308824 3.4470410694987  5.19793462775735 4.67186914558919  5.19793462775735 6.17714730989583  C 5.19793462775735 7.68120348502604  6.45449538235294 8.90480953076172  7.99952408180147 8.90480953076172  C 9.54552624356618 8.90480953076172  10.803125359375 7.68120346443685  10.803125359375 6.17714730989583  C 10.803125359375 4.67186914558919  9.54552624356618 3.4470410694987  7.99952408180147 3.4470410694987  Z " fill-rule="nonzero" fill="#797979" stroke="none" transform="matrix(1 0 0 1 317 88 )" />
  </g>
</svg>