<?xml version="1.0" encoding="utf-8"?>
<svg version="1.1" xmlns:xlink="http://www.w3.org/1999/xlink" width="125px" height="93px" xmlns="http://www.w3.org/2000/svg">
  <g transform="matrix(1 0 0 1 -133 -337 )">
    <path d="M 124.684061187022 29.4591298574815  C 124.684061187022 28.0207418712746  123.891470464443 26.7007433634143  122.625495416966 26.0307478850526  L 63.4919754672897 0.471184670759908  C 62.7648926551617 0.164569521349127  61.9457584052266 0.164569521349129  61.2186755930985 0.471184670759908  L 2.085155643422 26.0307478850526  C 0.80446156626053 26.6957915455705  0 28.0238458840541  0 29.4730663502827  C 0 30.9222868165113  0.80446156626053 32.2503411549949  2.085155643422 32.9153848155129  L 61.2186755930985 58.4749480298055  C 61.9336977293716 58.7933817598377  62.7492301103121 58.7933817598377  63.4642522465852 58.4749480298055  L 109 38.5736087531817  L 109 58.9209164318884  C 106.854617730583 60.5073431564427  105.265239192789 63.3450025515977  105.265239192789 66.4048234111178  C 105.265239192789 69.4646442706379  106.854617730583 72.3023036657929  109.456990025162 73.8887303903472  L 109.456990025162 80.9963515670235  L 115.500640905823 80.9963515670235  L 115.500640905823 73.8887303903472  C 118.103013200402 72.3023036657929  119.692391738195 69.4646442706379  119.692391738195 66.4048234111178  C 119.692391738195 63.3450025515977  118.103013200402 60.5073431564427  115 58.9209164318884  L 115 35.9814174781899  L 122.625495416966 32.8875118299104  C 123.891470464443 32.2175163515487  124.684061187022 30.8975178436884  124.684061187022 29.4591298574815  Z M 62.1058170381021 63.6035844278858  L 62.3553254852624 63.6035844278858  C 61.4486542209033 63.6016697867115  60.5521047016234 63.4119022769462  59.7216244608195 63.0461239930441  L 23 47.1027541832631  L 23 69.1224432568442  C 22.8498093997124 87.1562898779801  49.741283519051 92.5636565838304  58.1414037562904 92.5636565838304  L 66.4583546010064 92.5636565838304  C 72.7515140186916 92.5636565838304  101.749949047448 87.1562898779801  101 69.1224432568442  L 101 47.1027541832631  L 64.8781338964774 63.0739969786465  C 64.0030850035712 63.4503169576704  63.0571657439926 63.6310131022519  62.1058170381021 63.6035844278858  Z " fill-rule="nonzero" fill="#e02b32" stroke="none" fill-opacity="0.611764705882353" transform="matrix(1 0 0 1 133 337 )" />
  </g>
</svg>