<?xml version="1.0" encoding="utf-8"?>
<svg version="1.1" xmlns:xlink="http://www.w3.org/1999/xlink" width="19px" height="16px" xmlns="http://www.w3.org/2000/svg">
  <g transform="matrix(1 0 0 1 -335 -77 )">
    <path d="M 0.869281045751634 8.89285714285714  L 16.3809803921569 8.89285714285714  L 11.558954248366 14.44  C 11.413379863943 14.6074652692987  11.3315970263523 14.8345969163599  11.3315970263523 15.0714285714286  C 11.3315970263523 15.5646049627259  11.679134248088 15.9644034208127  12.1078431372549 15.9644034208127  C 12.3137164060401 15.9644034208127  12.5111576417208 15.8703224121558  12.6567320261438 15.7028571428571  L 18.716862745098 8.73142857142857  C 19.0682099380424 8.32700684458487  19.0682099380424 7.67156458398656  18.716862745098 7.26714285714286  L 12.6567320261438 0.297142857142859  C 12.5111576417208 0.129677587844175  12.3137164060401 0.0355965791872756  12.1078431372549 0.0355965791872756  C 11.679134248088 0.0355965791872756  11.3315970263523 0.435395037274111  11.3315970263523 0.928571428571431  C 11.3315970263523 1.16540308364009  11.413379863943 1.39253473070132  11.558954248366 1.56  L 16.3809803921569 7.10714285714286  L 0.869281045751634 7.10714285714286  C 0.440628633677484 7.10714285714286  0.0931372221899456 7.50688861622251  0.0931372221899456 8  C 0.0931372221899456 8.49311138377749  0.440628633677484 8.89285714285714  0.869281013039619 8.89285714285714  Z " fill-rule="nonzero" fill="#e02b32" stroke="none" fill-opacity="0.505882352941176" transform="matrix(1 0 0 1 335 77 )" />
  </g>
</svg>