<?xml version="1.0" encoding="utf-8"?>
<svg version="1.1" xmlns:xlink="http://www.w3.org/1999/xlink" width="50px" height="50px" xmlns="http://www.w3.org/2000/svg">
  <g transform="matrix(1 0 0 1 -151 -248 )">
    <path d="M 176 249  C 189.44 249  200 259.56  200 273  C 200 286.44  189.44 297  176 297  C 162.56 297  152 286.44  152 273  C 152 259.56  162.56 249  176 249  Z " fill-rule="nonzero" fill="#ffffff" stroke="none" fill-opacity="0" />
    <path d="M 176 249  C 189.44 249  200 259.56  200 273  C 200 286.44  189.44 297  176 297  C 162.56 297  152 286.44  152 273  C 152 259.56  162.56 249  176 249  Z " stroke-width="2" stroke="#fffcfc" fill="none" />
  </g>
</svg>