<?xml version="1.0" encoding="utf-8"?>
<svg version="1.1" xmlns:xlink="http://www.w3.org/1999/xlink" width="11px" height="11px" xmlns="http://www.w3.org/2000/svg">
  <g transform="matrix(1 0 0 1 -18 -190 )">
    <path d="M 1.822919921875 8.652470703125  L 4.050185546875 8.652470703125  C 4.11932593654817 8.65277904099438  4.18785560253194 8.63952433193579  4.25189453125 8.61345703125  C 4.31589909143285 8.58737725034295  4.37408067989225 8.54883406419575  4.423056640625 8.500068359375  L 8.058798828125 4.86083984375  L 9.55078125 3.4008984375  C 9.65025958349049 3.30231934234085  9.7062221455042 3.16807653809414  9.7062221455042 3.02802734375  C 9.7062221455042 2.88797814940586  9.65025958349049 2.75373534515915  9.55078125 2.65515625  L 7.3228515625 0.40232421875  C 7.22426604591449 0.302794689937297  7.0899875433349 0.246799539413435  6.9498974609375 0.246799539413435  C 6.8098073785401 0.246799539413435  6.67552887596051 0.302794689937297  6.576943359375 0.40232421875  L 5.0955859375 1.88849609375  L 1.44921875 5.527724609375  C 1.35090143556962 5.62683405431745  1.29606636923071 5.76099479396581  1.29681640625 5.900595703125  L 1.29681640625 8.12736328125  C 1.29699970013947 8.41742580342697  1.53219327928527 8.65247076103777  1.822255859375 8.652470703125  Z M 6.20390625 2.2613671875  L 6.949814453125 1.515625  L 8.436484375 3.001796875  L 7.69140625 3.7475390625  L 6.20390625 2.2613671875  Z M 2.348193359375 7.60208984375  L 2.348193359375 6.11591796875  L 5.463310546875 3.001796875  L 6.949814453125 4.4873046875  L 3.834697265625 7.60208984375  L 2.348193359375 7.60208984375  Z M 10.7437284885096 10.2270458984375  C 10.7437284885096 9.94058558762689  10.5142080108642 9.70694794559589  10.22779296875 9.70185546875  L 0.772207031250001 9.70185546875  C 0.485791989135782 9.70694794559589  0.256271511490374 9.94058558762688  0.256271511490374 10.2270458984375  C 0.256271511490374 10.5135062092481  0.485791989135783 10.7471438512791  0.77220703125 10.752236328125  L 10.22779296875 10.752236328125  C 10.5142080108642 10.7471438512791  10.7437284885096 10.5135062092481  10.7437284885096 10.2270458984375  Z " fill-rule="nonzero" fill="#7f7f7f" stroke="none" transform="matrix(1 0 0 1 18 190 )" />
  </g>
</svg>