<?xml version="1.0" encoding="utf-8"?>
<svg version="1.1" xmlns:xlink="http://www.w3.org/1999/xlink" width="23px" height="23px" xmlns="http://www.w3.org/2000/svg">
  <defs>
    <mask fill="white" id="clip109">
      <path d="M 7.35209452312911 22.1396616619038  C 6.95435017387952 22.3385338501234  6.52819548483758 22.4379699442331  6.11624597928659 22.4379699170436  C 5.56224491072163 22.4379699170436  5.02244899845806 22.2675080414268  4.56788399681332 21.9265843173828  C 3.74398495852179 21.3299677799136  3.3462406092722 20.3356068660053  3.51670245769942 19.3412459792866  L 4.17013964756373 15.5058539138569  C 4.25537058537212 15.0086734704975  4.08490870975534 14.5114929999486  3.72977980222039 14.1705692759046  L 0.931364119603208 11.4431793747944  C 0.206901175421464 10.7329215869141  -0.0487916380037006 9.69594523129112  0.263721800627056 8.72999462998561  C 0.576235239257812 7.7640440286801  1.40013425035979 7.06799139710115  2.40870032056949 6.92593986127673  L 6.25829754230057 6.3719387655222  C 6.75547798565995 6.30091298401521  7.18163267470189 5.98839957257401  7.39470999203331 5.54803975442023  L 9.1135338229338 2.0535714402241  C 9.56809882457853 1.13023630782278  10.4772287734889 0.562030082956414  11.5 0.562030082956414  C 12.5227712265111 0.562030082956414  13.4319011754215 1.13023630782278  13.8722610207648 2.0393662839227  L 15.6052900079667 5.53383459811883  C 15.8325725087891 5.97419441627262  16.2587271706415 6.28670785490337  16.7417024576994 6.35773360922081  L 20.5912996794305 6.91173470497533  C 21.5998657496402 7.05378626798931  22.4237647607422 7.74983889956826  22.7362781993729 8.71578947368421  C 23.0487916380037 9.68174007498972  22.7930988245785 10.7187164306127  22.0686358803968 11.428974218493  L 19.284425354081 14.1421589633018  C 18.9292964737356 14.4830827145354  18.7588345981188 14.9944683141961  18.8440655087377 15.4774436012541  L 19.497502698602 19.3128356666838  C 19.6679645742188 20.3214017368935  19.2702201977796 21.3015574673109  18.4463211594881 21.89817400478  C 17.6224221211965 22.4947905422492  16.5570354529708 22.5658163237562  15.6621106331723 22.0970461929996  L 12.2102577878803 20.3214017097039  C 11.7698979697266 20.0941192088816  11.2443071865748 20.0941192088816  10.8039473684211 20.3214017097039  L 7.35209452312911 22.1396616619038  Z " fill-rule="evenodd" />
    </mask>
  </defs>
  <g transform="matrix(1 0 0 1 0 2 )">
    <path d="M 7.35209452312911 22.1396616619038  C 6.95435017387952 22.3385338501234  6.52819548483758 22.4379699442331  6.11624597928659 22.4379699170436  C 5.56224491072163 22.4379699170436  5.02244899845806 22.2675080414268  4.56788399681332 21.9265843173828  C 3.74398495852179 21.3299677799136  3.3462406092722 20.3356068660053  3.51670245769942 19.3412459792866  L 4.17013964756373 15.5058539138569  C 4.25537058537212 15.0086734704975  4.08490870975534 14.5114929999486  3.72977980222039 14.1705692759046  L 0.931364119603208 11.4431793747944  C 0.206901175421464 10.7329215869141  -0.0487916380037006 9.69594523129112  0.263721800627056 8.72999462998561  C 0.576235239257812 7.7640440286801  1.40013425035979 7.06799139710115  2.40870032056949 6.92593986127673  L 6.25829754230057 6.3719387655222  C 6.75547798565995 6.30091298401521  7.18163267470189 5.98839957257401  7.39470999203331 5.54803975442023  L 9.1135338229338 2.0535714402241  C 9.56809882457853 1.13023630782278  10.4772287734889 0.562030082956414  11.5 0.562030082956414  C 12.5227712265111 0.562030082956414  13.4319011754215 1.13023630782278  13.8722610207648 2.0393662839227  L 15.6052900079667 5.53383459811883  C 15.8325725087891 5.97419441627262  16.2587271706415 6.28670785490337  16.7417024576994 6.35773360922081  L 20.5912996794305 6.91173470497533  C 21.5998657496402 7.05378626798931  22.4237647607422 7.74983889956826  22.7362781993729 8.71578947368421  C 23.0487916380037 9.68174007498972  22.7930988245785 10.7187164306127  22.0686358803968 11.428974218493  L 19.284425354081 14.1421589633018  C 18.9292964737356 14.4830827145354  18.7588345981188 14.9944683141961  18.8440655087377 15.4774436012541  L 19.497502698602 19.3128356666838  C 19.6679645742188 20.3214017368935  19.2702201977796 21.3015574673109  18.4463211594881 21.89817400478  C 17.6224221211965 22.4947905422492  16.5570354529708 22.5658163237562  15.6621106331723 22.0970461929996  L 12.2102577878803 20.3214017097039  C 11.7698979697266 20.0941192088816  11.2443071865748 20.0941192088816  10.8039473684211 20.3214017097039  L 7.35209452312911 22.1396616619038  Z " fill-rule="nonzero" fill="#f59a23" stroke="none" fill-opacity="0" transform="matrix(1 0 0 1 0 -2 )" />
    <path d="M 7.35209452312911 22.1396616619038  C 6.95435017387952 22.3385338501234  6.52819548483758 22.4379699442331  6.11624597928659 22.4379699170436  C 5.56224491072163 22.4379699170436  5.02244899845806 22.2675080414268  4.56788399681332 21.9265843173828  C 3.74398495852179 21.3299677799136  3.3462406092722 20.3356068660053  3.51670245769942 19.3412459792866  L 4.17013964756373 15.5058539138569  C 4.25537058537212 15.0086734704975  4.08490870975534 14.5114929999486  3.72977980222039 14.1705692759046  L 0.931364119603208 11.4431793747944  C 0.206901175421464 10.7329215869141  -0.0487916380037006 9.69594523129112  0.263721800627056 8.72999462998561  C 0.576235239257812 7.7640440286801  1.40013425035979 7.06799139710115  2.40870032056949 6.92593986127673  L 6.25829754230057 6.3719387655222  C 6.75547798565995 6.30091298401521  7.18163267470189 5.98839957257401  7.39470999203331 5.54803975442023  L 9.1135338229338 2.0535714402241  C 9.56809882457853 1.13023630782278  10.4772287734889 0.562030082956414  11.5 0.562030082956414  C 12.5227712265111 0.562030082956414  13.4319011754215 1.13023630782278  13.8722610207648 2.0393662839227  L 15.6052900079667 5.53383459811883  C 15.8325725087891 5.97419441627262  16.2587271706415 6.28670785490337  16.7417024576994 6.35773360922081  L 20.5912996794305 6.91173470497533  C 21.5998657496402 7.05378626798931  22.4237647607422 7.74983889956826  22.7362781993729 8.71578947368421  C 23.0487916380037 9.68174007498972  22.7930988245785 10.7187164306127  22.0686358803968 11.428974218493  L 19.284425354081 14.1421589633018  C 18.9292964737356 14.4830827145354  18.7588345981188 14.9944683141961  18.8440655087377 15.4774436012541  L 19.497502698602 19.3128356666838  C 19.6679645742188 20.3214017368935  19.2702201977796 21.3015574673109  18.4463211594881 21.89817400478  C 17.6224221211965 22.4947905422492  16.5570354529708 22.5658163237562  15.6621106331723 22.0970461929996  L 12.2102577878803 20.3214017097039  C 11.7698979697266 20.0941192088816  11.2443071865748 20.0941192088816  10.8039473684211 20.3214017097039  L 7.35209452312911 22.1396616619038  Z " stroke-width="4" stroke="#7f7f7f" fill="none" transform="matrix(1 0 0 1 0 -2 )" mask="url(#clip109)" />
  </g>
</svg>