<?xml version="1.0" encoding="utf-8"?>
<svg version="1.1" xmlns:xlink="http://www.w3.org/1999/xlink" width="111px" height="111px" xmlns="http://www.w3.org/2000/svg">
  <g transform="matrix(1 0 0 1 -143 -130 )">
    <path d="M 198.5 135  C 226.78 135  249 157.22  249 185.5  C 249 213.78  226.78 236  198.5 236  C 170.22 236  148 213.78  148 185.5  C 148 157.22  170.22 135  198.5 135  Z " fill-rule="nonzero" fill="#ffffff" stroke="none" fill-opacity="0" />
    <path d="M 198.5 133  C 227.9 133  251 156.1  251 185.5  C 251 214.9  227.9 238  198.5 238  C 169.1 238  146 214.9  146 185.5  C 146 156.1  169.1 133  198.5 133  Z " stroke-width="6" stroke="#fee8af" fill="none" />
  </g>
</svg>