<?xml version="1.0" encoding="utf-8"?>
<svg version="1.1" xmlns:xlink="http://www.w3.org/1999/xlink" width="70px" height="70px" xmlns="http://www.w3.org/2000/svg">
  <defs>
    <mask fill="white" id="clip74">
      <path d="M 35 70  C 15.575 70  0 54.425  0 35  L 0 35  C 0 15.575  15.575 0  35 0  L 35 0  C 54.425 0  70 15.575  70 35  L 70 35  C 70 54.425  54.425 70  35 70  " fill-rule="evenodd" />
    </mask>
  </defs>
  <g>
    <path d="M 0 0  L 70 0  L 70 70  L 0 70  L 0 0  " fill-rule="nonzero" fill="#cccccc" stroke="none" mask="url(#clip74)" />
    <path d="M 5 5  L 65 5  L 65 65  L 5 65  L 5 5  " fill-rule="nonzero" fill="#ffffff" stroke="none" mask="url(#clip74)" />
    <path d="M 41.65 21  C 38.71 21  36.4 18.69  36.4 15.75  C 36.4 12.81  38.71 10.5  41.65 10.5  C 44.59 10.5  46.9 12.81  46.9 15.75  C 46.9 18.69  44.59 21  41.65 21  " fill-rule="nonzero" fill="#cccccc" stroke="none" mask="url(#clip74)" />
    <path d="M 7 63  L 7 32.2  L 21 18.2  L 40.6 29.4  L 51.8 26.6  L 63 29.4  L 63 63  L 7 63  " fill-rule="nonzero" fill="#169bd5" stroke="none" mask="url(#clip74)" />
  </g>
</svg>