<?xml version="1.0" encoding="utf-8"?>
<svg version="1.1" xmlns:xlink="http://www.w3.org/1999/xlink" width="12px" height="12px" viewBox="42 539  12 12" xmlns="http://www.w3.org/2000/svg">
  <path d="M 42.5 541  A 1.5 1.5 0 0 1 44 539.5 L 52 539.5  A 1.5 1.5 0 0 1 53.5 541 L 53.5 549  A 1.5 1.5 0 0 1 52 550.5 L 44 550.5  A 1.5 1.5 0 0 1 42.5 549 L 42.5 541  Z " fill-rule="nonzero" fill="#f0f0f0" stroke="none" />
  <path d="M 42.5 541  A 1.5 1.5 0 0 1 44 539.5 L 52 539.5  A 1.5 1.5 0 0 1 53.5 541 L 53.5 549  A 1.5 1.5 0 0 1 52 550.5 L 44 550.5  A 1.5 1.5 0 0 1 42.5 549 L 42.5 541  Z " stroke-width="1" stroke="#797979" fill="none" />
</svg>