<?xml version="1.0" encoding="utf-8"?>
<svg version="1.1" xmlns:xlink="http://www.w3.org/1999/xlink" width="12px" height="12px" viewBox="42 589  12 12" xmlns="http://www.w3.org/2000/svg">
  <path d="M 42.5 591  A 1.5 1.5 0 0 1 44 589.5 L 52 589.5  A 1.5 1.5 0 0 1 53.5 591 L 53.5 599  A 1.5 1.5 0 0 1 52 600.5 L 44 600.5  A 1.5 1.5 0 0 1 42.5 599 L 42.5 591  Z " fill-rule="nonzero" fill="#ffffff" stroke="none" />
  <path d="M 42.5 591  A 1.5 1.5 0 0 1 44 589.5 L 52 589.5  A 1.5 1.5 0 0 1 53.5 591 L 53.5 599  A 1.5 1.5 0 0 1 52 600.5 L 44 600.5  A 1.5 1.5 0 0 1 42.5 599 L 42.5 591  Z " stroke-width="1" stroke="#797979" fill="none" />
  <path d="M 44.5714285714286 595  L 47.1428571428571 597.571428571429  " stroke-width="2.57142857142857" stroke="#797979" fill="none" />
  <path d="M 47.1428571428571 597.571428571429  L 51.4285714285714 591.571428571429  " stroke-width="2.57142857142857" stroke="#797979" fill="none" />
</svg>