<?xml version="1.0" encoding="utf-8"?>
<svg version="1.1" xmlns:xlink="http://www.w3.org/1999/xlink" width="12px" height="12px" viewBox="142 494  12 12" xmlns="http://www.w3.org/2000/svg">
  <path d="M 142.5 496  A 1.5 1.5 0 0 1 144 494.5 L 152 494.5  A 1.5 1.5 0 0 1 153.5 496 L 153.5 504  A 1.5 1.5 0 0 1 152 505.5 L 144 505.5  A 1.5 1.5 0 0 1 142.5 504 L 142.5 496  Z " fill-rule="nonzero" fill="#f0f0f0" stroke="none" />
  <path d="M 142.5 496  A 1.5 1.5 0 0 1 144 494.5 L 152 494.5  A 1.5 1.5 0 0 1 153.5 496 L 153.5 504  A 1.5 1.5 0 0 1 152 505.5 L 144 505.5  A 1.5 1.5 0 0 1 142.5 504 L 142.5 496  Z " stroke-width="1" stroke="#797979" fill="none" />
</svg>