<?xml version="1.0" encoding="utf-8"?>
<svg version="1.1" xmlns:xlink="http://www.w3.org/1999/xlink" width="12px" height="12px" viewBox="142 539  12 12" xmlns="http://www.w3.org/2000/svg">
  <path d="M 142.5 541  A 1.5 1.5 0 0 1 144 539.5 L 152 539.5  A 1.5 1.5 0 0 1 153.5 541 L 153.5 549  A 1.5 1.5 0 0 1 152 550.5 L 144 550.5  A 1.5 1.5 0 0 1 142.5 549 L 142.5 541  Z " fill-rule="nonzero" fill="#ffffff" stroke="none" />
  <path d="M 142.5 541  A 1.5 1.5 0 0 1 144 539.5 L 152 539.5  A 1.5 1.5 0 0 1 153.5 541 L 153.5 549  A 1.5 1.5 0 0 1 152 550.5 L 144 550.5  A 1.5 1.5 0 0 1 142.5 549 L 142.5 541  Z " stroke-width="1" stroke="#797979" fill="none" />
  <path d="M 144.571428571429 545  L 147.142857142857 547.571428571429  " stroke-width="2.57142857142857" stroke="#797979" fill="none" />
  <path d="M 147.142857142857 547.571428571429  L 151.428571428571 541.571428571429  " stroke-width="2.57142857142857" stroke="#797979" fill="none" />
</svg>