<?xml version="1.0" encoding="utf-8"?>
<svg version="1.1" xmlns:xlink="http://www.w3.org/1999/xlink" width="12px" height="12px" viewBox="142 589  12 12" xmlns="http://www.w3.org/2000/svg">
  <path d="M 142.5 591  A 1.5 1.5 0 0 1 144 589.5 L 152 589.5  A 1.5 1.5 0 0 1 153.5 591 L 153.5 599  A 1.5 1.5 0 0 1 152 600.5 L 144 600.5  A 1.5 1.5 0 0 1 142.5 599 L 142.5 591  Z " fill-rule="nonzero" fill="#ffffff" stroke="none" />
  <path d="M 142.5 591  A 1.5 1.5 0 0 1 144 589.5 L 152 589.5  A 1.5 1.5 0 0 1 153.5 591 L 153.5 599  A 1.5 1.5 0 0 1 152 600.5 L 144 600.5  A 1.5 1.5 0 0 1 142.5 599 L 142.5 591  Z " stroke-width="1" stroke="#797979" fill="none" />
  <path d="M 144.571428571429 595  L 147.142857142857 597.571428571429  " stroke-width="2.57142857142857" stroke="#797979" fill="none" />
  <path d="M 147.142857142857 597.571428571429  L 151.428571428571 591.571428571429  " stroke-width="2.57142857142857" stroke="#797979" fill="none" />
</svg>