<?xml version="1.0" encoding="utf-8"?>
<svg version="1.1" xmlns:xlink="http://www.w3.org/1999/xlink" width="12px" height="12px" viewBox="261 494  12 12" xmlns="http://www.w3.org/2000/svg">
  <path d="M 261.5 496  A 1.5 1.5 0 0 1 263 494.5 L 271 494.5  A 1.5 1.5 0 0 1 272.5 496 L 272.5 504  A 1.5 1.5 0 0 1 271 505.5 L 263 505.5  A 1.5 1.5 0 0 1 261.5 504 L 261.5 496  Z " fill-rule="nonzero" fill="#ffffff" stroke="none" />
  <path d="M 261.5 496  A 1.5 1.5 0 0 1 263 494.5 L 271 494.5  A 1.5 1.5 0 0 1 272.5 496 L 272.5 504  A 1.5 1.5 0 0 1 271 505.5 L 263 505.5  A 1.5 1.5 0 0 1 261.5 504 L 261.5 496  Z " stroke-width="1" stroke="#797979" fill="none" />
</svg>