<?xml version="1.0" encoding="utf-8"?>
<svg version="1.1" xmlns:xlink="http://www.w3.org/1999/xlink" width="12px" height="12px" viewBox="261 539  12 12" xmlns="http://www.w3.org/2000/svg">
  <path d="M 261.5 541  A 1.5 1.5 0 0 1 263 539.5 L 271 539.5  A 1.5 1.5 0 0 1 272.5 541 L 272.5 549  A 1.5 1.5 0 0 1 271 550.5 L 263 550.5  A 1.5 1.5 0 0 1 261.5 549 L 261.5 541  Z " fill-rule="nonzero" fill="#f0f0f0" stroke="none" />
  <path d="M 261.5 541  A 1.5 1.5 0 0 1 263 539.5 L 271 539.5  A 1.5 1.5 0 0 1 272.5 541 L 272.5 549  A 1.5 1.5 0 0 1 271 550.5 L 263 550.5  A 1.5 1.5 0 0 1 261.5 549 L 261.5 541  Z " stroke-width="1" stroke="#797979" fill="none" />
</svg>