<?xml version="1.0" encoding="utf-8"?>
<svg version="1.1" xmlns:xlink="http://www.w3.org/1999/xlink" width="12px" height="12px" viewBox="261 539  12 12" xmlns="http://www.w3.org/2000/svg">
  <path d="M 261.5 541  A 1.5 1.5 0 0 1 263 539.5 L 271 539.5  A 1.5 1.5 0 0 1 272.5 541 L 272.5 549  A 1.5 1.5 0 0 1 271 550.5 L 263 550.5  A 1.5 1.5 0 0 1 261.5 549 L 261.5 541  Z " fill-rule="nonzero" fill="#ffffff" stroke="none" />
  <path d="M 261.5 541  A 1.5 1.5 0 0 1 263 539.5 L 271 539.5  A 1.5 1.5 0 0 1 272.5 541 L 272.5 549  A 1.5 1.5 0 0 1 271 550.5 L 263 550.5  A 1.5 1.5 0 0 1 261.5 549 L 261.5 541  Z " stroke-width="1" stroke="#797979" fill="none" />
  <path d="M 263.571428571429 545  L 266.142857142857 547.571428571429  " stroke-width="2.57142857142857" stroke="#797979" fill="none" />
  <path d="M 266.142857142857 547.571428571429  L 270.428571428571 541.571428571429  " stroke-width="2.57142857142857" stroke="#797979" fill="none" />
</svg>