<?xml version="1.0" encoding="utf-8"?>
<svg version="1.1" xmlns:xlink="http://www.w3.org/1999/xlink" width="12px" height="12px" viewBox="261 589  12 12" xmlns="http://www.w3.org/2000/svg">
  <path d="M 261.5 591  A 1.5 1.5 0 0 1 263 589.5 L 271 589.5  A 1.5 1.5 0 0 1 272.5 591 L 272.5 599  A 1.5 1.5 0 0 1 271 600.5 L 263 600.5  A 1.5 1.5 0 0 1 261.5 599 L 261.5 591  Z " fill-rule="nonzero" fill="#ffffff" stroke="none" />
  <path d="M 261.5 591  A 1.5 1.5 0 0 1 263 589.5 L 271 589.5  A 1.5 1.5 0 0 1 272.5 591 L 272.5 599  A 1.5 1.5 0 0 1 271 600.5 L 263 600.5  A 1.5 1.5 0 0 1 261.5 599 L 261.5 591  Z " stroke-width="1" stroke="#797979" fill="none" />
</svg>