<?xml version="1.0" encoding="utf-8"?>
<svg version="1.1" xmlns:xlink="http://www.w3.org/1999/xlink" width="12px" height="12px" viewBox="42 634  12 12" xmlns="http://www.w3.org/2000/svg">
  <path d="M 42.5 636  A 1.5 1.5 0 0 1 44 634.5 L 52 634.5  A 1.5 1.5 0 0 1 53.5 636 L 53.5 644  A 1.5 1.5 0 0 1 52 645.5 L 44 645.5  A 1.5 1.5 0 0 1 42.5 644 L 42.5 636  Z " fill-rule="nonzero" fill="#ffffff" stroke="none" />
  <path d="M 42.5 636  A 1.5 1.5 0 0 1 44 634.5 L 52 634.5  A 1.5 1.5 0 0 1 53.5 636 L 53.5 644  A 1.5 1.5 0 0 1 52 645.5 L 44 645.5  A 1.5 1.5 0 0 1 42.5 644 L 42.5 636  Z " stroke-width="1" stroke="#797979" fill="none" />
</svg>