<?xml version="1.0" encoding="utf-8"?>
<svg version="1.1" xmlns:xlink="http://www.w3.org/1999/xlink" width="24px" height="23px" xmlns="http://www.w3.org/2000/svg">
  <g transform="matrix(1 0 0 1 -140 -753 )">
    <path d="M 24 2.19047620117188  C 24 0.980709600397359  22.9766508517593 0  21.714285703125 0  L 2.285714296875 0  C 1.02334914824072 0  0 0.980709600397359  0 2.19047620117188  L 0 20.8095237988281  C 0 22.0192903996026  1.02334914824072 23  2.285714296875 23  L 21.714285703125 23  C 22.9766508517593 23  24 22.0192903996026  24 20.8095237988281  L 24 2.19047620117188  Z M 21.788571421875 6.64809524023438  L 21.788571421875 19.2433333408203  C 21.7645097077427 20.1580038680707  20.9838725212294 20.8874920887116  20.0291304565261 20.8874920887116  C 20.0060803029419 20.8874920887116  19.9830323734896 20.8870581355764  19.9600000078125 20.8861904804688  L 4.0399999921875 20.8861904804688  C 4.0169676265104 20.8870581355764  3.99391969705811 20.8874920887116  3.97086954347387 20.8874920887116  C 3.01612747877055 20.8874920887116  2.23549029225734 20.1580038680708  2.211428578125 19.2433333408203  L 2.211428578125 6.64809524023438  C 2.23864186718493 5.73268829209331  3.02083191844265 5.00414097611334  3.97642673529829 5.00414097611334  C 3.99762297464652 5.00414097611334  4.01881749571729 5.00450674355848  4.0399999921875 5  L 19.9600000078125 5  C 19.9811825042827 5.00450674355848  20.0023770253535 5.00414097611334  20.0235732647017 5.00414097611334  C 20.9791680815573 5.00414097611334  21.7613581328151 5.73268829209331  21.788571421875 6.64809524023438  Z " fill-rule="nonzero" fill="#e02b32" stroke="none" fill-opacity="0.772549019607843" transform="matrix(1 0 0 1 140 753 )" />
  </g>
</svg>