<?xml version="1.0" encoding="utf-8"?>
<svg version="1.1" xmlns:xlink="http://www.w3.org/1999/xlink" width="26px" height="23px" xmlns="http://www.w3.org/2000/svg">
  <g transform="matrix(1 0 0 1 -53 -753 )">
    <path d="M 15.103943359375 22.5229823545259  C 15.0750114889706 22.5230334725216  15.0449213579963 22.5087204337285  14.991099207261 22.4923115571121  L 14.991099207261 15.9571313981681  L 11.0298973460478 15.9571313981681  L 11.0298973460478 22.5097683526401  C 10.906111328125 22.5163881330819  10.8073634535846 22.5263050242457  10.7085662913603 22.5263050242457  C 8.83824655330882 22.5263050242457  6.96694106158088 22.5273529431573  5.09649810431985 22.5263050242457  C 4.45378670726103 22.5263050242457  4.0215830078125 22.0987541082974  4.01874896599265 21.39071875  C 4.00576166130515 18.7019121767241  4.00970467601103 16.0108819706358  4.02160765165441 13.3220753973599  C 4.02160765165441 13.1802740773168  4.12545680147059 12.9989585466056  4.23024241727941 12.9021666217672  C 5.9229539866728 11.351093278556  7.62453733915441 9.80993682650863  9.32326200597427 8.26755354256466  C 10.4540200482537 7.24089971713362  11.5838416245404 6.21414365571121  12.714550379136 5.18853774919181  C 12.8024056755515 5.10935597386854  12.8923064108456 5.0324745083513  13.0029819048713 4.93448131061423  C 13.6776563648897 5.54577586206897  14.3493489200368 6.1536455078125  15.0200557215074 6.76263974946121  C 17.2326537798713 8.77106580010776  19.4423685087316 10.7838879983836  21.6609796645221 12.7846463496767  C 21.8995320542279 12.9989329876078  22.0013111213235 13.2165678542565  21.9992903262868 13.5628155980603  C 21.9853419117647 16.115443830819  21.9892849264706 18.6689410695043  21.9943615579044 21.2203680293642  C 21.9952733800551 21.6843149582435  21.8904877642463 22.0877637392241  21.5181932444853 22.343916015625  C 21.3834653607537 22.4371807987608  21.2128067555147 22.5175638469828  21.0581420036765 22.5186373248922  C 19.0730558938419 22.5296276939655  17.0879451401654 22.5240047144397  15.103943359375 22.5229823545259  Z M 17.9722647633272 4.39935257273707  C 17.9722647633272 3.32094177667026  17.9712790096507 2.32500986664871  17.9722647633272 1.33010031654095  C 17.9731765854779 0.694754748114225  18.1109110179228 0.543036536907329  18.6868129595588 0.541963058997846  C 19.581064051011 0.541963058997846  20.4753151424632 0.540940699084053  21.3695662339154 0.543036536907329  C 21.8306771599265 0.544237809806036  21.9902706801471 0.723304148706898  21.9913303653493 1.26088655037716  C 21.9934250919118 3.39012998383621  21.9983045726103 5.5206513671875  21.9853172679228 7.64989480064655  C 21.983296472886 7.97858351293104  22.0671841107537 8.18957304014009  22.3015963350184 8.39844117052802  C 23.2818051470588 9.26693591729526  24.2428410500919 10.1594816810345  25.2089535845588 11.0466089372306  C 25.6829285960478 11.4819809065194  25.6949547909007 11.6940183526401  25.2957245519301 12.2118692079741  C 25.0542888327206 12.5262448814655  24.8178065257353 12.8461668574892  24.5742021484375 13.159494612069  C 24.2748287568934 13.5474290813578  24.0272567210478 13.5716590113147  23.6690338350184 13.2418201441272  C 20.2387835477941 10.089066641972  16.8085332605699 6.93416618399784  13.3772232881434 3.78039032192888  C 13.2584399701287 3.6715601091056  13.1367240349265 3.56485129310345  12.9979052734375 3.43948440867457  C 12.2264790900735 4.14754532596983  11.4609674287684 4.84778518992457  10.6974519186581 5.55014645070043  C 7.91299350873161 8.10936890490302  5.12846116727941 10.669511483028  2.3439288258272 13.2285805832435  C 1.96668089384191 13.5759273639547  1.73224402573529 13.5551478987069  1.41485598575367 13.146152815194  C 1.15203742756685 12.8063366828347  0.891218588258514 12.4648621273865  0.632414005055141 12.1217481815733  C 0.330970530790435 11.7215709523168  0.342996725643376 11.4631950431034  0.707232709099259 11.1257907125539  C 2.26112551700367 9.69338779633621  3.81913384650735 8.26648006465517  5.37603320312499 6.83742537715517  C 7.45089682904411 4.9323599137931  9.5278058938419 3.02956920123922  11.6017330537684 1.12123218615302  C 12.5428074448529 0.256060109105604  13.4590408432904 0.256060109105604  14.4022346047794 1.12780084859914  C 15.5169987936581 2.15777734375  16.6348927504596 3.18351104525862  17.7515791590073 4.21016487068966  C 17.8045880629595 4.25865028960129  17.8604556525735 4.30363412580819  17.9722401194853 4.39935257273707  Z " fill-rule="nonzero" fill="#797979" stroke="none" transform="matrix(1 0 0 1 53 753 )" />
  </g>
</svg>