<?xml version="1.0" encoding="utf-8"?>
<svg version="1.1" xmlns:xlink="http://www.w3.org/1999/xlink" width="18px" height="18px" xmlns="http://www.w3.org/2000/svg">
  <g transform="matrix(1 0 0 1 -103 -225 )">
    <path d="M 9 2.49409999335938  C 10.110525 1.552725  10.9159000066406 1.13749999335938  12.1035625066406 1.13749999335938  C 15.3922125 1.13749999335938  17.5000000066406 3.77462500664063  17.5000000066406 7.32379999335938  C 17.5000000066406 10.0780125  15.0078 13.1112375  10.0975624933594 16.5195250066406  C 9.43729149281372 16.9767833063193  8.56270850718628 16.9767833063193  7.90243750664063 16.5195250066406  C 2.9922 13.1112375  0.499999993359375 10.0780125  0.499999993359375 7.32379999335938  C 0.499999993359375 3.77462500664063  2.6077875 1.13749999335938  5.89643749335937 1.13749999335938  C 7.08409999335937 1.13749999335938  7.88968748671875 1.55251249335937  9 2.49409999335938  Z M 16.2250000066406 7.30063750664062  C 16.2250000066406 4.40320000664062  14.6142500132813 2.3955  12.1035625066406 2.3955  C 11.2780000066406 2.3955  10.7038250132813 2.69809999335937  9.77350000664062 3.492  C 9.73036251328125 3.52876249335938  9.48662500664062 3.73849999335937  9.41607499335937 3.79842499335938  C 9.17595098575806 4.00174852447519  8.82404901424194 4.00174852447519  8.58392500664062 3.79842499335938  C 8.51337501328125 3.73828748671875  8.26963750664062 3.52876249335938  8.22649999335937 3.492  C 7.29617498671875 2.69809999335937  6.72199999335937 2.3955  5.89643749335937 2.3955  C 3.38575000664063 2.3955  1.77499999335938 4.40320000664062  1.77499999335938 7.30063750664062  C 1.77499999335938 9.51  4.03663750664063 12.2521000066406  8.634075 15.4313125066406  C 8.85436826939671 15.5832474852423  9.14563173060329 15.5832474852423  9.365925 15.4313125066406  C 13.9633624933594 12.2523124933594  16.2250000066406 9.51  16.2250000066406 7.30063750664062  Z " fill-rule="nonzero" fill="#797979" stroke="none" transform="matrix(1 0 0 1 103 225 )" />
  </g>
</svg>