<?xml version="1.0" encoding="utf-8"?>
<svg version="1.1" xmlns:xlink="http://www.w3.org/1999/xlink" width="18px" height="17px" xmlns="http://www.w3.org/2000/svg">
  <g transform="matrix(1 0 0 1 -169 -225 )">
    <path d="M 1.4286093815918 15.3448290341782  L 1.99096875 13.2672176813063  C 1.77328125 12.8949178868671  1.6306874934082 12.6452305313696  1.5598124934082 12.5119931049351  C 0.903181709910037 11.2783115172592  0.560515653183916 9.89983138911977  0.562499993408203 8.49999531347066  C 0.562499993408203 3.80566041203172  4.3401796940918 0  9 0  C 13.6598203059082 0  17.4375000065918 3.80566039210986  17.4375000065918 8.49999531347066  C 17.4375000065918 13.1943302348315  13.6598203256836 16.9999906269413  9 16.9999906269413  C 7.47369853056712 17.0022787737706  5.97562066481364 16.5855901450559  4.6667109440918 15.7946912791516  C 4.53484755872925 15.716006951225  4.40265890403612 15.6378771500286  4.2701484309082 15.5603039152064  L 2.2054921875 16.1276786019373  C 1.7329921940918 16.257303537007  1.2997265559082 15.8206162781186  1.4286093815918 15.3448290341782  Z M 3.2163046940918 12.8502929115063  C 3.30350264884885 12.9986651738385  3.32732170091697 13.1762930661848  3.2823281184082 13.342655146295  L 2.9410312565918 14.6038419366647  L 4.1929453059082 14.2600171397847  C 4.35657033373214 14.2150036655105  4.53128375882329 14.2380477047492  4.677890625 14.3239795911873  C 4.89166587521082 14.4488871894428  5.10492552501236 14.5746882038007  5.3176640625 14.7013793828106  C 6.42993923052965 15.3734155383036  7.70301633541924 15.7273041996163  9 15.7249913309168  C 12.9609843815918 15.7249913309168  16.1718750065918 12.4903181169026  16.1718750065918 8.49999531347066  C 16.1718750065918 4.50967251003867  12.9609843815918 1.27499929602451  9 1.27499929602451  C 5.0390156184082 1.27499929602451  1.8281249934082 4.50967251003868  1.8281249934082 8.49999531347066  C 1.8281249934082 9.70699465368114  2.1217499934082 10.8697940116555  2.6750390625 11.9093434310402  C 2.7484453125 12.0470433550108  2.9306953125 12.3640931865962  3.2163046940918 12.8502929115063  Z M 9 12.9624928495564  C 7.9658563648001 12.9639172478847  6.96405390554637 12.5994569269478  6.1694296875 11.9327184114933  C 6.02130164786348 11.8116706022193  5.93527182970206 11.6297728904218  5.93527182970206 11.4376252049387  C 5.93527182970206 11.0855438713191  6.21859163644976 10.8001255569265  6.56808432970206 10.8001255569265  C 6.71854318650891 10.8001255569265  6.86407930326735 10.8541317969493  6.9785859309082 10.9524564593738  C 7.54594404918416 11.4287530305496  8.26146904812237 11.6889359510402  9 11.6874935535319  C 9.74925 11.6874935535319  10.4569453190918 11.4250562050742  11.0207812565918 10.9526689658971  C 11.1344297804839 10.8574837050947  11.277563972988 10.8053720898626  11.4253593782959 10.8053720898626  C 11.7748709618956 10.8053720898626  12.0582060822956 11.0908058313334  12.0582060822956 11.4429061952185  C 12.0582060822956 11.6323704863056  11.9745564938161 11.8120191356189  11.8299375 11.9331434245399  C 11.0354218240285 12.5995883050232  10.033873744391 12.9638871419767  9 12.9624928495564  Z " fill-rule="nonzero" fill="#797979" stroke="none" transform="matrix(1 0 0 1 169 225 )" />
  </g>
</svg>