<?xml version="1.0" encoding="utf-8"?>
<svg version="1.1" xmlns:xlink="http://www.w3.org/1999/xlink" width="22px" height="22px" xmlns="http://www.w3.org/2000/svg">
  <g transform="matrix(1 0 0 1 -146 -399 )">
    <path d="M 157 399  C 163.16 399  168 403.84  168 410  C 168 416.16  163.16 421  157 421  C 150.84 421  146 416.16  146 410  C 146 403.84  150.84 399  157 399  Z " fill-rule="nonzero" fill="#ffffff" stroke="none" />
    <path d="M 157 399.5  C 162.88 399.5  167.5 404.12  167.5 410  C 167.5 415.88  162.88 420.5  157 420.5  C 151.12 420.5  146.5 415.88  146.5 410  C 146.5 404.12  151.12 399.5  157 399.5  Z " stroke-width="1" stroke="#f59a23" fill="none" />
  </g>
</svg>