<?xml version="1.0" encoding="utf-8"?>
<svg version="1.1" xmlns:xlink="http://www.w3.org/1999/xlink" width="6px" height="6px" xmlns="http://www.w3.org/2000/svg">
  <g transform="matrix(1 0 0 1 -256 -560 )">
    <path d="M 5.78620567382812 3.13609102539062  C 5.78303050195313 1.57708590625  4.51931557617188 0.316546134765623  2.96348562890625 0.3197212890625  L 2.95713530273438 0.3197212890625  C 1.40130535546875 0.3197212890625  0.137590412109375 1.58343623242187  0.137590412109375 3.1392661796875  C 0.137590412109375 4.69509612695312  1.40130535546875 5.9588110703125  2.95713530273438 5.9588110703125  L 2.96983595507812 5.9588110703125  C 4.52566590234375 5.9556358984375  5.78620569140625 4.69192097265625  5.78620567382812 3.13609102539062  Z M 4.37008290234375 3.13609102539063  C 4.37325807421875 3.9140060078125  3.744575765625 4.54586347070313  2.96348562890625 4.549038625  L 2.95396013085938 4.549038625  C 2.1760451484375 4.549038625  1.54418768554687 3.91718116210938  1.54418768554687 3.1392661796875  C 1.54418768554687 2.36135119726562  2.1760451484375 1.729493734375  2.95396013085937 1.729493734375  L 2.95713530273437 1.729493734375  C 3.73505028515625 1.729493734375  4.36690774804687 2.35817604296875  4.37008290234375 3.13609102539063  Z " fill-rule="nonzero" fill="#e02b32" stroke="none" fill-opacity="0.831372549019608" transform="matrix(1 0 0 1 256 560 )" />
  </g>
</svg>