<?xml version="1.0" encoding="utf-8"?>
<svg version="1.1" xmlns:xlink="http://www.w3.org/1999/xlink" width="14px" height="17px" xmlns="http://www.w3.org/2000/svg">
  <g transform="matrix(1 0 0 1 -253 -691 )">
    <path d="M 13.3677897402344 6.52663609375  C 13.3709649121094 2.98632915625  10.5006173945313 0.112806501953125  6.96031045703125 0.112806484375  C 5.25842299023437 0.112806484375  3.62956430078125 0.78911623046875  2.42935261914062 1.99250308398437  C 1.2291409375 3.19588991992187  0.552831191406249 4.82792379882812  0.552831191406249 6.52663609375  C 0.552831191406249 9.08264243945312  3.88357734765625 14.1724289980469  5.741047796875 16.3664667519531  C 6.04268829882813 16.7252601894531  6.4872111484375 16.9316457988281  6.95713530273438 16.9316457988281  L 6.96348562890625 16.9316457988281  C 7.43340978320312 16.9316457988281  7.87793261523437 16.7252601894531  8.1795731171875 16.3664667519531  C 10.0370435664063 14.1724289980469  13.3677897402344 9.07946728515625  13.3677897402344 6.52663609375  Z M 10.2466043476562 10.882959953125  C 9.13529723242187 12.832510140625  7.85888163671875 14.5597988945312  7.1031928046875 15.4583700742187  C 7.06826600195312 15.499647203125  7.01746339257812 15.5218733359375  6.96348562890625 15.5218733535156  L 6.95713530273437 15.5218733535156  C 6.90315752148437 15.5218733535156  6.85235491210937 15.4964720488281  6.817428109375 15.4551949199219  C 6.06173927734375 14.5629740664063  4.7916740078125 12.832510140625  3.67401658398437 10.882959953125  C 2.1277121171875 8.17454577929687  1.96260363671875 6.93305696875  1.96260363671875 6.52663609375  C 1.96260363671875 3.76424413867188  4.20109367382812 1.5257541015625  6.96031045703125 1.5225789296875  C 9.72270241210937 1.52892925585937  11.9580172773437 3.76741929296875  11.9580172949219 6.52663609375  C 11.9580172949219 7.74907390820313  10.7609807851562 9.98121361914063  10.2466043476562 10.882959953125  Z " fill-rule="nonzero" fill="#e02b32" stroke="none" fill-opacity="0.807843137254902" transform="matrix(1 0 0 1 253 691 )" />
  </g>
</svg>