<?xml version="1.0" encoding="utf-8"?>
<svg version="1.1" xmlns:xlink="http://www.w3.org/1999/xlink" width="25px" height="23px" xmlns="http://www.w3.org/2000/svg">
  <g transform="matrix(1 0 0 1 -231 -753 )">
    <path d="M 24.2886904761905 11.6739375  C 24.2857142857143 8.541625  22.9910714285714 5.6306875  20.6383928571429 3.4744375  C 18.2872023809524 1.319625  15.202380952381 0.2228125  11.9568452380952 0.388125  C 9.06398809523809 0.53475  6.33779761904762 1.7206875  4.28273809523809 3.7245625  C 2.22619047619047 5.729875  1.02380952380952 8.3734375  0.898809523809522 11.169375  C 0.802083333333331 13.314125  1.32738095238095 15.418625  2.42261904761905 17.270125  L 2.42261904761905 21.3483125  C 2.42261904761905 22.2453125  3.17857142857143 22.9755625  4.10714285714285 22.9755625  L 12.9419642857143 22.9755625  C 12.9925595238095 22.9755625  13.0416666666667 22.97125  13.0892857142857 22.962625  C 16.0877976190476 22.8404375  18.8883928571429 21.628625  20.985119047619 19.5428125  C 23.1145833333333 17.4239375  24.2886904761905 14.6294375  24.2886904761905 11.6739375  Z M 8.41815476190476 11.4468125  C 8.41964285714286 12.244625  7.7485119047619 12.8929375  6.92113095238095 12.8929375  C 6.09375 12.8929375  5.42410714285714 12.244625  5.42410714285714 11.4468125  C 5.42410714285714 10.6475625  6.09523809523809 10.0006875  6.92113095238095 10.0006875  C 7.7485119047619 10.0006875  8.41815476190476 10.649  8.41815476190476 11.4468125  Z M 14.0178571428571 11.4468125  C 14.0193452380952 12.244625  13.3482142857143 12.8929375  12.5208333333333 12.8929375  C 11.6934523809524 12.8929375  11.0238095238095 12.244625  11.0238095238095 11.4468125  C 11.0238095238095 10.6475625  11.6949404761905 10.0006875  12.5208333333333 10.0006875  C 13.3482142857143 10.0006875  14.0178571428571 10.649  14.0178571428571 11.4468125  Z M 19.9404761904762 11.4468125  C 19.9404761904762 12.244625  19.2708333333333 12.8929375  18.4434523809524 12.8929375  C 17.6160714285714 12.8929375  16.9464285714286 12.244625  16.9464285714286 11.4468125  C 16.9464285714286 10.6475625  17.6175595238095 10.0006875  18.4434523809524 10.0006875  C 19.2708333333333 10.0006875  19.9404761904762 10.649  19.9404761904762 11.4468125  Z " fill-rule="nonzero" fill="#e65856" stroke="none" transform="matrix(1 0 0 1 231 753 )" />
  </g>
</svg>