<?xml version="1.0" encoding="utf-8"?>
<svg version="1.1" xmlns:xlink="http://www.w3.org/1999/xlink" width="20px" height="19px" xmlns="http://www.w3.org/2000/svg">
  <g transform="matrix(1 0 0 1 -23 -1068 )">
    <path d="M 18.9852 16.51385  C 18.815 15.95035  18.6632 15.4202  18.5321 14.9372  C 18.8992917126257 14.1491720644228  19.0784155734167 13.2866217809214  19.05535 12.41755  C 19.0105 10.67645  18.1296 9.02505  16.699 8.0027  C 16.67715 7.98775  16.6553 7.97395  16.63345 7.96015  C 16.4667 6.0385  15.64215 4.25945  14.25525 2.8714  C 12.62915 1.2453  10.4637 0.3897  8.1637 0.4633  C 3.80865 0.6013  0.310350000000001 4.12145  0.19765 8.47765  C 0.16315 9.81165  0.4518 11.13415  1.03485 12.32325  C 0.7117 13.52385  0.35635 14.71755  0.105650000000001 15.53405  C -0.0579373287055815 16.0651647812483  0.0839219377267799 16.6432081472717  0.474800000000001 17.03825  C 0.763450000000001 17.33035  1.151 17.4879  1.5489 17.4879  C 1.6915 17.4879  1.83525 17.46835  1.97555 17.4258  L 5.49225 16.39195  C 6.4801 16.7703  7.5197 16.9497  8.59265 16.93015  C 9.0032 16.9221  9.40915 16.883  9.80935 16.81515  C 10.7972 17.66385  12.04955 18.14455  13.34215 18.1687  C 14.03675 18.18135  14.71525 18.07095  15.3604 17.83635  L 17.1475 18.3619  C 17.2855 18.40215  17.42695 18.42285  17.5661 18.42285  C 17.9548 18.42285  18.3343 18.2699  18.6172 17.9847  C 19.00015 17.5983  19.1416 17.0348  18.9852 16.51385  Z M 15.05335 8.91350000000001  C 14.9418 12.4394  12.0898 15.2546  8.5616 15.3213  C 7.61975 15.34085  6.70665 15.16375  5.8476 14.80035  C 5.67608852648664 14.7276087601182  5.48465038921076 14.7166345993827  5.30595 14.7693  L 1.69725 15.8296  C 1.9698 14.9372  2.3424 13.6768  2.669 12.4371  C 2.72075 12.2393  2.69545 12.02885  2.59885 11.8483  C 2.04915 10.834  1.77545 9.68400000000001  1.80535 8.52020000000001  C 1.8962 5.01615000000001  4.71025 2.18485000000001  8.21315 2.07330000000001  C 10.0681 2.01350000000001  11.8069 2.70235000000001  13.1156 4.01105000000001  C 14.4243 5.31975000000001  15.112 7.05970000000001  15.05335 8.91350000000001  Z M 17.4442 12.45895  C 17.4642260245566 13.1581831206809  17.2996145593859 13.8503445826637  16.96695 14.4657  C 16.8691383450118 14.6457765084496  16.8440345653124 14.8564836429758  16.8968 15.0545  C 17.0325 15.5697  17.1935 16.13895  17.3752 16.7519  L 15.549 16.21485  C 15.3702962918231 16.1622134260857  15.1788680648851 16.1731870187127  15.00735 16.2459  C 14.48985 16.46555  13.939 16.57135  13.3709 16.55985  C 12.82925 16.5495  12.2968 16.4253  11.8069 16.2022  C 12.6988044727641 15.7978182150476  13.5118230468677 15.2382838802837  14.2081 14.54965  C 15.457 13.31685  16.2666 11.7517  16.55065 10.06005  C 17.09805 10.73855  17.4212 11.58265  17.4442 12.45895  Z " fill-rule="nonzero" fill="#747266" stroke="none" transform="matrix(1 0 0 1 23 1068 )" />
  </g>
</svg>