<?xml version="1.0" encoding="utf-8"?>
<svg version="1.1" xmlns:xlink="http://www.w3.org/1999/xlink" width="8px" height="4px" xmlns="http://www.w3.org/2000/svg">
  <g transform="matrix(1 0 0 1 -27 -1074 )">
    <path d="M 2.2432 2.7111  C 2.2432 3.15615  1.88325 3.5161  1.4382 3.5161  C 0.993150000000001 3.5161  0.6332 3.15615  0.6332 2.7111  L 0.6332 1.76465  C 0.6332 1.3196  0.99315 0.959649999999998  1.4382 0.959649999999998  C 1.88325 0.959649999999998  2.2432 1.3196  2.2432 1.76465  L 2.2432 2.7111  Z M 7.6022 2.7111  C 7.6022 3.15615  7.24225 3.5161  6.7972 3.5161  C 6.35215 3.5161  5.9922 3.15615  5.9922 2.7111  L 5.9922 1.76465  C 5.9922 1.3196  6.35215 0.959649999999998  6.7972 0.959649999999998  C 7.24225 0.959649999999998  7.6022 1.3196  7.6022 1.76465  L 7.6022 2.7111  Z " fill-rule="nonzero" fill="#747266" stroke="none" transform="matrix(1 0 0 1 27 1074 )" />
  </g>
</svg>