<?xml version="1.0" encoding="utf-8"?>
<svg version="1.1" xmlns:xlink="http://www.w3.org/1999/xlink" width="18px" height="18px" xmlns="http://www.w3.org/2000/svg">
  <g>
    <path d="M 6.795 2.88166666015626  L 7.045 2.0025  C 7.43166666015625 0.7675  8.10333333984375 0.24  9.42833333984375 0.6225  L 9.46166666015625 0.63333333984375  C 9.84916666015625 0.7525  10.295 0.9791666796875  10.7133333398438 1.35916666015625  C 11.3716666796875 1.95916666015625  11.7633333398438 2.7908333203125  11.7633333398438 3.83583333984375  C 11.7633333398438 4.7691666796875  11.7091666796875 5.34583333984375  11.5508333398438 6  L 11.5458333398437 6.01833333984375  L 14.9733333398438 6.01833333984375  C 17.0683333398438 6.01833333984375  17.9008333398438 7.4316666796875  17.3741666601563 9.78166666015625  L 17.3291666601563 9.97416666015625  L 17.2225 10.3258333398437  L 16.82 11.6366666601563  L 16.6316666601563 12.2358333398438  L 16.4525 12.7958333398437  L 16.1191666601563 13.8041666601563  L 15.8916666601563 14.4608333398438  L 15.7508333398438 14.8525  L 15.5558333398438 15.3675  L 15.4366666601563 15.665  C 14.86 17.0566666601563  13.67 17.6958333398438  12.1141666601563 17.5125  L 4.55333333984376 16.95  C 4.50529222524943 16.9474756899926  4.4572357157069 16.9452534260262  4.40916666015626 16.9433333398438  L 4.10916666015626 16.9366666601563  L 3.25833333984375 16.9366666601563  L 3.01416666015625 16.9325  L 2.81916666015625 16.9241666601563  L 2.65666666015625 16.9091666601563  L 2.58416666015625 16.8983333398438  L 2.445 16.8708333398438  L 2.22 16.8116666601563  C 1.06083333984375 16.4675  0.4575 15.485  0.4575 14.085  L 0.4575 8.5475  C 0.4575 6.77916666015625  1.53083333984375 5.77  3.35916666015625 5.77  L 4.83916666015625 5.76916666015626  L 4.94083333984375 5.69166666015625  C 5.51937690081101 5.21444538963233  5.99870212460916 4.62838323817374  6.35166666015625 3.96666666015626  L 6.47083333984375 3.73333333984375  C 6.59 3.48833333984375  6.6875 3.23166667968751  6.78 2.9325  L 6.795 2.88166666015626  Z M 8.91 2.20666666015626  L 8.77666666015625 2.16  C 8.7408333203125 2.15166666015625  8.725 2.16333333984375  8.7075 2.21416666015625  L 8.63166666015625 2.50583333984375  L 8.42333333984375 3.25666666015625  L 8.37333333984375 3.42333333984375  C 8.26657122807979 3.7793361446543  8.13227722761707 4.12649447879092  7.97166666015625 4.46166666015625  C 7.61073803319859 5.20124202961242  7.13167998276285 5.87704602103327  6.55333333984375 6.4625  C 6.259921391598 6.76672278329528  5.93756506269534 7.04163272830613  5.59083333984375 7.28333333984375  L 5.69833333984375 7.20666666015625  L 5.69833333984375 15.3591666601563  L 12.2741666601562 15.8541666601563  C 13.0925 15.95  13.5558333203125 15.735  13.8408333398437 15.1491666601563  L 13.8966666601562 15.0275  L 14.0091666601562 14.7466666601563  L 14.195 14.255  L 14.33 13.8783333398438  L 14.5491666601562 13.2441666601563  L 14.7066666601562 12.7741666601563  L 15.0458333398437 11.7241666601563  L 15.4208333398437 10.5258333398438  L 15.7225 9.5325  C 16.0933333398437 8.04666666015626  15.875 7.68500000000001  14.9733333398437 7.68500000000001  L 10.7216666601562 7.685  C 10.1425271717071 7.68500018420317  9.67354544715484 7.21601845965092  9.67354544715484 6.63750018420317  C 9.67354544715484 6.52122098021369  9.69290613345548 6.40575322110282  9.73083333984375 6.29583333984375  L 9.77333333984375 6.17083333984375  L 9.83833333984375 5.9575  C 10.0391666796875 5.25916666015626  10.0966666796875 4.8025  10.0966666601562 3.83583333984376  C 10.0966666601562 2.89000000000001  9.57166666015625 2.41083333984376  8.9825 2.22916666015626  L 8.91 2.20666666015626  Z M 4.03166666015625 7.43583333984375  L 3.36 7.43583333984375  C 2.43 7.43583333984375  2.125 7.72333333984375  2.125 8.5475  L 2.125 14.085  C 2.125 14.8275  2.31916666015625 15.1266666601562  2.785 15.2375  L 2.81416666015625 15.2441666601562  L 2.8875 15.255  L 2.9875 15.2633333398437  L 3.21333333984375 15.2683333398437  L 3.77166666015625 15.2683333398437  L 4.03166666015625 15.27  L 4.03166666015625 7.43666666015625  Z " fill-rule="nonzero" fill="#7f7f7f" stroke="none" />
  </g>
</svg>