<?xml version="1.0" encoding="utf-8"?>
<svg version="1.1" xmlns:xlink="http://www.w3.org/1999/xlink" width="15px" height="9px" xmlns="http://www.w3.org/2000/svg">
  <g transform="matrix(1 0 0 1 -300 -161 )">
    <path d="M 7.5 6.2925  L 2.09187499511719 0.884374995117188  C 1.93040446031958 0.720811630268671  1.71014354926771 0.628744700575347  1.48030511051476 0.628744700575347  C 1.00568540093222 0.628744700575347  0.620930105631944 1.01349999587562  0.620930105631944 1.48811970545816  C 0.620930105631944 1.71811139386468  0.713119496941453 1.9385059953023  0.876874995117187 2.1  L 6.8925 8.11562500488281  C 7.22806791254976 8.4510053586148  7.77193208745024 8.4510053586148  8.1075 8.11562500488281  L 14.1231250048828 2.1  C 14.2868805030585 1.93850599530231  14.379069894368 1.71811139386472  14.379069894368 1.48811970545823  C 14.379069894368 1.01349999587569  13.9943145990677 0.628744700575418  13.5196948894852 0.628744700575418  C 13.2898564507323 0.628744700575418  13.0695955396804 0.720811630268713  12.9081250048828 0.884374995117188  L 7.5 6.2925  Z " fill-rule="nonzero" fill="#cccccc" stroke="none" transform="matrix(1 0 0 1 300 161 )" />
  </g>
</svg>