<?xml version="1.0" encoding="utf-8"?>
<svg version="1.1" xmlns:xlink="http://www.w3.org/1999/xlink" width="15px" height="10px" xmlns="http://www.w3.org/2000/svg">
  <g transform="matrix(1 0 0 1 -293 -349 )">
    <path d="M 7.5 6.99166666666667  L 2.09187499511719 0.982638883463542  C 1.93040446031958 0.800901811409634  1.71014354926771 0.698605222861497  1.48030511051476 0.698605222861497  C 1.00568540093222 0.698605222861497  0.620930105631944 1.12611110652847  0.620930105631944 1.65346633939795  C 0.620930105631944 1.90901265984965  0.713119496941453 2.15389555033589  0.876874995117187 2.33333333333333  L 6.8925 9.01736111653646  C 7.22806791254976 9.39000595401644  7.77193208745024 9.39000595401644  8.1075 9.01736111653646  L 14.1231250048828 2.33333333333333  C 14.2868805030585 2.1538955503359  14.379069894368 1.90901265984969  14.379069894368 1.65346633939803  C 14.379069894368 1.12611110652854  13.9943145990677 0.698605222861575  13.5196948894852 0.698605222861575  C 13.2898564507323 0.698605222861575  13.0695955396804 0.800901811409682  12.9081250048828 0.982638883463542  L 7.5 6.99166666666667  Z " fill-rule="nonzero" fill="#cccccc" stroke="none" transform="matrix(1 0 0 1 293 349 )" />
  </g>
</svg>