<?xml version="1.0" encoding="utf-8"?>
<svg version="1.1" xmlns:xlink="http://www.w3.org/1999/xlink" width="24px" height="26px" xmlns="http://www.w3.org/2000/svg">
  <g transform="matrix(1 0 0 1 -327 -84 )">
    <path d="M 23.56050196875 20.0734921796875  C 23.4259971601563 22.8932244140625  21.0955691914063 25.1460050195313  18.2515214453125 25.1460050195313  L 18.1551827695313 25  L 5.79114959765625 25  L 5.69492283984375 25.1460050195313  C 2.8507911484375 25.1460050195313  0.519159999999999 22.8932244140625  0.384767136718749 20.0734921796875  L 0.378919101562499 20.0734921796875  L 0.378919101562499 19.8148915078125  L 0.3789191015625 6.17425184765625  L 0.3789191015625 6.12900652734375  L 0.3789191015625 5.8716650078125  L 0.38476713671875 5.8716650078125  C 0.51916002734375 3.0508415390625  2.85079117578125 0.798032933593749  5.69492283984375 0.798032933593749  L 15.5117030703125 0.798032933593749  L 15.5117030703125 0.799236113281249  L 16.2665193046875 0.799236113281249  L 13.9743134140625 2.7365586015625  L 13.3969528671875 2.7365586015625  L 12.26422484375 2.7365586015625  L 9.7922408515625 2.7365586015625  L 5.69492283984375 2.7365586015625  C 3.8305189140625 2.7365586015625  2.31170865234375 4.259006375  2.31170865234375 6.1290345  L 2.31170865234375 6.78074065234375  L 2.31170865234375 6.830630828125  L 2.31170865234375 10.2392517890625  L 2.31170865234375 19.045133390625  L 2.31170865234375 19.0520447148437  L 2.31170865234375 19.8148915078125  C 2.31170865234375 21.6850595234375  3.83051888671875 23.2073953789062  5.69492283984375 23.2073953789062  L 9.7922408515625 23.2073953789062  L 14.154091515625 23.2073953789062  L 18.2515214453125 23.2073953789062  C 20.1158414257812 23.2073953789062  21.6346237148437 21.6850874960938  21.6346237148437 19.8148915078125  L 21.6346237148437 19.1134630703125  L 21.6346237148437 19.0925332617187  L 21.6346237148437 15.70470221875  L 21.6346237148437 10.236901375  L 23.567441265625 8.3319529296875  L 23.567441265625 19.8148915078125  L 23.567441265625 20.0734921796875  L 23.56050196875 20.0734921796875  Z M 16.8856275507813 11.5644892734375  L 15.4839738828125 13.0438462773438  C 15.0190131289063 13.519299921875  13.842131046875 14.7123550390625  13.4700673203125 15.1065797539062  C 13.0966324960938 15.5030709375  12.787106359375 15.8287980820312  12.5424962265625 16.0850483398437  C 12.2978021210938 16.3413265703125  12.1505939257812 16.4884788203125  12.1053766054688 16.524518375  C 11.9870448320313 16.6335044921875  11.8537152304688 16.7483106445312  11.701806234375 16.8711473554688  C 11.551128390625 16.9929208046875  11.3934832773438 17.0903227421875  11.2300181015625 17.1632972773438  C 11.0665529257813 17.2491710625  10.8276788828125 17.3512178554688  10.5122767382813 17.4763770078125  C 10.1969025664063 17.5981224570313  9.86764980078125 17.7163423125  9.52211208203125 17.8324076171875  C 9.17777754296875 17.94830503125  8.85081921875 18.0480294375  8.54238434375 18.1337912773438  C 8.232830234375 18.217230703125  8.00209866796875 18.2741441210938  7.85018964453125 18.2995508945313  C 7.53601865234375 18.3355624765625  7.32621689453125 18.2857002734375  7.22064448046875 18.152398671875  C 7.11521195703125 18.018985125  7.08625158984375 17.7917791796875  7.132588171875 17.4776081875  C 7.15693165625 17.3059725625  7.21143871484375 17.058984015625  7.29960694140625 16.7366425742187  C 7.38646004296875 16.41323784375  7.48044833203125 16.078165015625  7.57896953125 15.7315080625  C 7.67869391015625 15.3847391640625  7.77492066796875 15.063656875  7.86762183203125 14.771506953125  C 7.96161012109375 14.47935703125  8.0369070703125 14.2775858320313  8.09603095703125 14.1685997148438  C 8.1655917890625 13.9992865039063  8.24452627734375 13.842760625  8.3325825859375 13.7025197265625  C 8.4195476328125 13.5621668828125  8.5447067578125 13.4068441835938  8.7083118515625 13.2364397382813  C 8.777760765625 13.1633253125  8.941337859375 12.9893952460938  9.1987073515625 12.7158526914063  C 9.45484569140625 12.4409670664063  10.5309121054688 11.3465730664063  10.91573521875 10.9442338476563  L 12.1934609140625 9.60970665234375  L 13.6126307148437 8.1303496484375  L 17.2393077460938 4.34118667578125  L 20.5412930039063 7.69082361328125  L 16.8856275507813 11.5644892734375  Z M 22.8068889414063 5.32320885546875  C 22.632958875 5.5053093984375  22.4764329960938 5.66415769140625  22.3384865117188 5.8009849140625  C 22.200428109375 5.93784013671875  22.0798858398438 6.0595855859375  21.9778670195313 6.16504608203125  C 21.8619416054688 6.28679153125  21.7540467773438 6.39345520703125  21.6520279296875 6.48383395703125  L 18.3662436796875 3.13548414453125  C 18.5413769257813 2.968465375  18.7477929804688 2.76792535546875  18.9877582851563 2.53254893359375  C 19.2277235898438 2.297228484375  19.428291609375 2.11160234765625  19.5871399023438 1.97477509765625  C 19.7922968046875 1.80792421875  20.002266453125 1.69076765234375  20.2213019492188 1.62243797265625  C 20.4207787070313 1.5597884375  20.6167018710938 1.529624890625  20.8103585664063 1.5308560703125  L 20.8636344453125 1.5308560703125  C 20.9702701484375 1.535472953125  21.0758705625 1.545797953125  21.1778893828125 1.563202140625  C 21.1755949414063 1.56208290625  21.1708381679688 1.563202140625  21.1685437265625 1.56208290625  C 21.1708381679688 1.56208290625  21.17556696875 1.56208290625  21.1778893828125 1.563202140625  C 21.619653859375 1.64552233203125  22.0822082539063 1.8831931953125  22.475313734375 2.26353931640625  C 22.6932859414063 2.47577543359375  22.8706297109375 2.7122151171875  22.999286484375 2.955706015625  C 23.1895295039063 3.315122328125  23.2798802539063 3.69085159375  23.2625040117188 4.033954953125  C 23.2625040117188 4.0756746796875  23.2660296328125 4.11862555859375  23.2660296328125 4.1615484375  C 23.2660296328125 4.359794015625  23.2289267890625 4.55683644140625  23.1558403359375 4.7539907578125  C 23.082865828125 4.9510332109375  22.9657092617188 5.141276203125  22.8068889414063 5.32320885546875  Z " fill-rule="nonzero" fill="#7f7f7f" stroke="none" transform="matrix(1 0 0 1 327 84 )" />
  </g>
</svg>