<?xml version="1.0" encoding="utf-8"?>
<svg version="1.1" xmlns:xlink="http://www.w3.org/1999/xlink" width="59px" height="43px" xmlns="http://www.w3.org/2000/svg">
  <g transform="matrix(1 0 0 1 -169 -138 )">
    <path d="M 58.8508768802746 13.6208879986205  C 58.8508768802746 12.9558268867184  58.476774059217 12.3455049959872  57.879233836808 12.0357221404006  L 29.9682124205607 0.217859578953506  C 29.6250293332363 0.07609128406465  29.2383979672669 0.076091284064651  28.8952148799425 0.217859578953506  L 0.984193463695183 12.0357221404006  C 0.37970585927497 12.3432154458014  0 12.9572620754229  0 13.6273317533565  C 0 14.2974014312902  0.37970585927497 14.9114480609116  0.984193463695183 15.2189413663124  L 28.8952148799425 27.0368039277595  C 29.2327053282634 27.1840367276669  29.6176366120673 27.1840367276669  29.9551270603882 27.0368039277595  L 51.6636992918763 17.8351094235141  L 51.6636992918763 27.2430043717333  C 50.4353795688352 27.9765135024412  49.6851928989966 29.2885495668678  49.6851928989966 30.7033054481512  C 49.6851928989966 32.1180613294347  50.4353795688352 33.4300973938612  51.6636992918763 34.1636065245691  L 51.6636992918763 37.449925993355  L 54.5163025075485 37.449925993355  L 54.5163025075485 34.1636065245691  C 55.7446222305897 33.4300973938612  56.4948089004282 32.1180613294347  56.4948089004282 30.7033054481512  C 56.4948089004282 29.2885495668678  55.7446222305897 27.9765135024412  54 27.2430043717333  L 54 16.6365693716362  L 57.879233836808 15.2060538568403  C 58.476774059217 14.8962710012537  58.8508768802746 14.2859491105226  58.8508768802746 13.6208879986205  Z M 29.3139456419842 29.4081089290225  L 29.4317136290439 29.4081089290225  C 29.0037647922664 29.4072236648236  28.5805934191663 29.3194816979429  28.1886067455068 29.150358405386  L 11 21.778692794412  L 11 31.9598393553151  C 10.7851100366643 40.2980695134747  23.4778858209921 42.7982498183302  27.4427425729691 42.7982498183302  L 31.368343371675 42.7982498183302  C 34.3387146168224 42.7982498183302  48.0259759503954 40.2980695134747  48 31.9598393553151  L 48 21.778692794412  L 30.6224791991373 29.1632459148581  C 30.2094561216856 29.3372433245143  29.7629822311645 29.420791004267  29.3139456419842 29.4081089290225  Z " fill-rule="nonzero" fill="#ffffff" stroke="none" transform="matrix(1 0 0 1 169 138 )" />
  </g>
</svg>