<?xml version="1.0" encoding="utf-8"?>
<svg version="1.1" xmlns:xlink="http://www.w3.org/1999/xlink" width="21px" height="21px" xmlns="http://www.w3.org/2000/svg">
  <g transform="matrix(1 0 0 1 -339 -86 )">
    <path d="M 4.19465625 0.375  L 10.45528125 0.375  C 10.9205800307339 0.375975214783402  11.297262847201 0.753448344109704  11.297262847201 1.21874814681369  C 11.297262847201 1.64619541310701  10.9776123242612 2.00611398688224  10.55315625 2.05659375  L 10.45528125 2.0625  L 4.19465625 2.0625  C 3.07298188127896 2.06728208871781  2.14490397468953 2.9364811431842  2.06671875 4.0554375  L 2 4.19465625  L 2 16.80534375  C 2.06728208871781 17.927018118721  2.9364811431842 18.8550960253105  4.0554375 18.93328125  L 4.19465625 19  L 16.80534375 19  C 17.927018118721 18.9327179112822  18.8550960253105 18.0635188568158  18.93328125 16.9445625  L 18.9375 16.80534375  L 18.9375 10.48903125  C 18.9380164616018 10.0234067169822  19.3156246615334 9.64621712037963  19.7812494809756 9.64621712037963  C 20.2086924381165 9.64621712037963  20.5686088129596 9.96586138062185  20.61909375 10.3903125  L 20.625 10.48903125  L 20.625 16.80534375  C 20.625 18.84721875  19.005 20.52628125  16.98421875 20.62078125  L 16.80534375 20.625  L 4.19465625 20.625  C 2.1565649667672 20.6202761282231  0.479366553840393 19.0198534940393  0.379218749999999 16.98421875  L 0.375 16.80534375  L 0.375 4.19465625  C 0.375 2.15278125  1.995 0.473718749999999  4.01578125 0.379218749999999  L 4.19465625 0.375  Z M 17.247076140893 0.371124796405414  C 17.4772811939741 0.371124796405414  17.6974908266249 0.465184833926877  17.85665625 0.6315  L 17.925 0.7125  L 20.47734375 4.11703125  L 20.45625 4.0875  C 20.4849375 4.1263125  20.51025 4.16596875  20.5321875 4.20815625  L 20.56425 4.27903125  L 20.58534375 4.3389375  L 20.61065625 4.435125  L 20.6233125 4.54059375  L 20.6233125 4.64521875  C 20.6138833070714 4.84242685960012  20.5353215637822 5.03001915916501  20.40140625 5.17509375  L 17.925 8.475  C 17.7656798806367 8.68775732259156  17.5154205047185 8.81300372327429  17.2496225010573 8.81300372327429  C 16.7836322433876 8.81300372327429  16.4058725010573 8.43524398094402  16.4058725010573 7.96925372327429  C 16.4058725010573 7.82259699733133  16.4440986158065 7.67847282972268  16.51678125 7.55109375  L 16.575 7.4625  L 18.063375 5.4796875  L 17.79253125 5.49909375  C 16.73446875 5.58346875  15.69496875 5.75221875  14.72971875 6.02221875  C 13.57546875 6.34621875  12.5925 6.79846875  11.8246875 7.3933125  C 11.1613061122935 7.89021838125664  10.5838413200851 8.49248052633872  10.11525 9.17615625  C 9.4011030394723 10.2229099798672  8.95968455586014 11.4314453420301  8.8310625 12.6920625  L 8.81840625 12.8608125  L 8.80828125 13.1173125  C 8.76386625163682 13.5474631815534  8.40143104592861 13.8744022452912  7.96899341930435 13.8744022452912  C 7.54595627697974 13.8744022452912  7.18831131631868 13.5611331029704  7.13259375 13.14178125  L 7.12415625 13.034625  C 7.12246875 12.67434375  7.17309375 12.123375  7.32665624999999 11.4433125  C 7.58292998685854 10.2911037371562  8.05657734972491 9.19833569804008  8.72221875 8.2235625  C 9.29199883331894 7.39148996767479  9.99397529858764 6.65816254374609  10.800375 6.05259375  C 11.74959375 5.31684375  12.9249375 4.776  14.2749375 4.398  C 15.35409375 4.09509375  16.49821875 3.90946875  17.65753125 3.81665625  L 18.12075 3.78459375  L 16.575 1.725  C 16.4636197691752 1.57825956220738  16.403326140893 1.39909833426679  16.403326140893 1.21487479640541  C 16.403326140893 0.748884538735682  16.7810858832232 0.371124796405414  17.247076140893 0.371124796405414  Z " fill-rule="nonzero" fill="#686666" stroke="none" transform="matrix(1 0 0 1 339 86 )" />
  </g>
</svg>