<?xml version="1.0" encoding="utf-8"?>
<svg version="1.1" xmlns:xlink="http://www.w3.org/1999/xlink" width="22px" height="26px" xmlns="http://www.w3.org/2000/svg">
  <g transform="matrix(1 0 0 1 -45 -159 )">
    <path d="M 3.86857143945312 18.3470857070312  C -0.19411429296875 14.2858857070312  -0.19411429296875 7.7012  3.86857143945312 3.64  C 7.92977143945313 -0.4212  14.5144571464844 -0.4212  18.5756571464844 3.64  C 22.6376 7.70194285351563  22.6376 14.2866285605469  18.5756571464844 18.3485714394531  L 11.2228571464844 25.7006285605469  L 3.86857143945313 18.3463428535156  Z M 11.2221142929687 15.4510631847824  C 12.4043221886157 15.4510631847824  13.5381099267001 14.9814329268155  14.3740571464844 14.1454857070312  C 15.2100043662686 13.309538487247  15.6796346242355 12.1757507491626  15.6796346242355 10.9935428535156  C 15.6796346242355 8.53172235249629  13.6839347939881 6.53602252224887  11.2221142929687 6.53602252224887  C 10.0399063973218 6.53602252224887  8.90611865923738 7.00565278021575  8.07017143945312 7.8416  C 7.23422421966887 8.67754721978425  6.764593961702 9.81133495786865  6.764593961702 10.9935428535156  C 6.764593961702 13.455363354535  8.76029379194942 15.4510631847824  11.2221142929687 15.4510631847824  Z " fill-rule="nonzero" fill="#f59a23" stroke="none" fill-opacity="0.909803921568627" transform="matrix(1 0 0 1 45 159 )" />
  </g>
</svg>