<?xml version="1.0" encoding="utf-8"?>
<svg version="1.1" xmlns:xlink="http://www.w3.org/1999/xlink" width="14px" height="13px" xmlns="http://www.w3.org/2000/svg">
  <g transform="matrix(1 0 0 1 -344 -295 )">
    <path d="M 12.3153909407407 8.87604938703704  C 13.5690534907407 5.92625514259259  12.4628806555556 2.46024692222222  9.73432098333333 0.837860085185185  C 8.55440329074074 0.174156381481482  7.15325102592593 -0.120823048148148  5.89958847592593 0.100411524074074  C 5.6046090462963 0.174156381481481  5.38337448703704 0.395390953703704  5.53086420185185 0.690370370370371  C 5.60460905925926 0.911604942592593  5.82584363148148 1.05909464444444  6.04707819074074 1.05909464444444  C 7.15325102592593 0.91160492962963  8.25942387407408 1.13283950185185  9.29185185185185 1.72279834814815  C 11.651687237037 3.05020575555556  12.536625512963 6  11.4304526777778 8.35983538518519  C 11.3567078203704 8.58106995740741  11.2092181055556 8.72855965925926  11.2092181055556 8.72855967222222  L 10.1767901277778 8.13860082592592  L 9.95555555555556 11.4571193444444  C 10.029300412963 11.5308642018519  13.1265843592593 9.90847736481481  13.1265843592593 9.90847736481481  L 12.0941563814815 9.31851851851852  L 12.3153909407407 8.87604938703704  Z M 7.37448559814815 11.2358847722222  C 6.26831276296296 11.4571193444444  5.08839505740741 11.2358847722222  4.05596707962963 10.6459259259259  C 1.54864197962963 9.24477366111111  0.737448561111111 6.07374485740741  2.13860082592593 3.56641975740741  L 3.24477366111111 4.1563786037037  L 3.46600823333333 0.911604942592593  L 0.29497942962963 2.46024690925926  L 1.32740740740741 3.05020575555556  C -0.368724274074074 6.07374484444444  0.811193418518518 9.83473250740741  3.53975309074074 11.4571193444444  C 4.79341564074074 12.1945679055556  6.19456790555556 12.4158024777778  7.52197531296296 12.1945679055556  C 7.81695474259259 12.1208230481481  7.96444444444444 11.8995884759259  7.89069958703704 11.6046090592593  C 7.81695472962963 11.383374487037  7.59572015740741 11.2358847851852  7.37448559814815 11.2358847722222  Z " fill-rule="nonzero" fill="#999999" stroke="none" transform="matrix(1 0 0 1 344 295 )" />
  </g>
</svg>