<?xml version="1.0" encoding="utf-8"?>
<svg version="1.1" xmlns:xlink="http://www.w3.org/1999/xlink" width="14px" height="16px" xmlns="http://www.w3.org/2000/svg">
  <g transform="matrix(1 0 0 1 -344 -195 )">
    <path d="M 12.7565789473684 5.83333333333333  C 12.7565789473684 5.5  12.5032894736842 5.23809523809524  12.1809210526316 5.23809523809524  C 11.8585526315789 5.23809523809524  11.6052631578947 5.5  11.6052631578947 5.83333333333333  L 11.6052631578947 13.5714285714286  C 11.6052631578947 14.2261904761905  11.0871710526316 14.7619047619048  10.4539473684211 14.7619047619048  L 9.30263157894737 14.7619047619048  L 9.30263157894737 5.83333333333333  C 9.30263157894737 5.5  9.04934210526316 5.23809523809524  8.72697368421053 5.23809523809524  C 8.4046052631579 5.23809523809524  8.15131578947369 5.5  8.15131578947369 5.83333333333333  L 8.15131578947369 14.7619047619048  L 5.84868421052632 14.7619047619048  L 5.84868421052632 5.83333333333333  C 5.84868421052632 5.5  5.59539473684211 5.23809523809524  5.27302631578947 5.23809523809524  C 4.95065789473684 5.23809523809524  4.69736842105263 5.5  4.69736842105263 5.83333333333333  L 4.69736842105263 14.7619047619048  L 3.54605263157895 14.7619047619048  C 2.91282894736842 14.7619047619048  2.39473684210526 14.2261904761905  2.39473684210526 13.5714285714286  L 2.39473684210526 5.83333333333333  C 2.39473684210526 5.5  2.14144736842105 5.23809523809524  1.81907894736842 5.23809523809524  C 1.49671052631579 5.23809523809524  1.24342105263158 5.5  1.24342105263158 5.83333333333333  L 1.24342105263158 13.5714285714286  C 1.24342105263158 14.8809523809524  2.27960526315789 15.952380952381  3.54605263157895 15.952380952381  L 10.4539473684211 15.952380952381  C 11.7203947368421 15.952380952381  12.7565789473684 14.8809523809524  12.7565789473684 13.5714285714286  L 12.7565789473684 5.83333333333333  Z M 13.9078947368421 3.45238095238095  C 13.9078947368421 3.11904761904762  13.6546052631579 2.85714285714286  13.3322368421053 3  L 0.667763157894737 3  C 0.345394736842106 2.85714285714286  0.0921052631578947 3.11904761904762  0.0921052631578947 3.45238095238095  C 0.0921052631578947 3.78571428571429  0.345394736842106 4.04761904761905  0.667763157894737 4  L 13.3322368421053 4  C 13.6546052631579 4.04761904761905  13.9078947368421 3.78571428571429  13.9078947368421 3.45238095238095  Z M 3.54605263157895 1.07142857142857  C 3.54605263157895 1.4047619047619  3.79934210526316 1.66666666666667  4.12171052631579 1.66666666666667  L 9.87828947368421 1.66666666666667  C 10.2006578947368 1.66666666666667  10.4539473684211 1.4047619047619  10.4539473684211 1.07142857142857  C 10.4539473684211 0.738095238095238  10.2006578947368 0.476190476190476  9.87828947368421 0.476190476190476  L 4.12171052631579 0.476190476190476  C 3.79934210526316 0.476190476190476  3.54605263157895 0.738095238095238  3.54605263157895 1.07142857142857  Z " fill-rule="nonzero" fill="#aaaaaa" stroke="none" transform="matrix(1 0 0 1 344 195 )" />
  </g>
</svg>