<?xml version="1.0" encoding="utf-8"?>
<svg version="1.1" xmlns:xlink="http://www.w3.org/1999/xlink" width="20px" height="20px" xmlns="http://www.w3.org/2000/svg">
  <g transform="matrix(1 0 0 1 -41 -128 )">
    <path d="M 19.9406457335251 19.2546112218064  C 19.9406457335251 19.0524665796455  19.8585429310936 18.8589908570827  19.7131602539063 18.718540390625  L 16.338008125 15.3433882617187  C 17.794011260868 13.6580383410545  18.5951758546007 11.5051694792326  18.5951758546007 9.27798527339318  C 18.5951758546007 4.15389774137576  14.4412821756806 0  9.3171946436632 0  C 4.19310711164578 0  0.0392134327256993 4.15389774137576  0.0392134327256993 9.27798527339318  C 0.0392134327256993 14.4020728054106  4.19310711164578 18.5559664843307  9.3171946436632 18.5559664843307  C 11.4962951820378 18.5559664843307  13.6058676177205 17.7889604600827  15.2761115234375 16.389401796875  L 18.6592051757812 19.77249546875  C 18.799655642239 19.9178781459373  18.9931313648017 19.9999809483689  19.1952760069626 19.9999809483689  C 19.6069323399286 19.9999809483689  19.9406457335251 19.6662675547724  19.9406457335251 19.2546112218064  Z M 16.9948864648438 9.3021495703125  C 16.9842474075178 13.5412645647523  13.5397920220542 16.9694677352908  9.30067412109375 16.9600577734375  C 5.06734063852059 16.9506606517924  1.64052107286759 13.5162258152074  1.64052107286759 9.28288190281732  C 1.64052107286759 5.04288430149503  5.07771825670155 1.60568711766107  9.31771585802384 1.60568711766107  C 13.5577134593461 1.60568711766107  16.9949106431801 5.04288430149503  16.9949106431801 9.28288190281732  C 16.9949106431801 9.28930446623437  16.9949025837283 9.29572702712249  16.9948864648438 9.3021495703125  Z " fill-rule="nonzero" fill="#686666" stroke="none" transform="matrix(1 0 0 1 41 128 )" />
  </g>
</svg>