<?xml version="1.0" encoding="utf-8"?>
<svg version="1.1" xmlns:xlink="http://www.w3.org/1999/xlink" width="15px" height="17px" xmlns="http://www.w3.org/2000/svg">
  <g transform="matrix(1 0 0 1 -32 -455 )">
    <path d="M 0.346153846153845 10.54  C -0.115384615384616 12.9766666666667  0.749999999999999 14.7333333333333  4.15384615384615 16.66  C 4.90384615384615 16.8866666666667  5.13461538461538 16.2066666666667  4.84615384615385 15.98  C 3.86538461538462 15.3  3.34615384615385 14.11  3.75 12.9766666666667  C 4.09615384615385 11.73  5.13461538461539 11.2766666666667  5.13461538461539 9.40666666666666  C 5.13461538461539 9.40666666666666  6.40384615384615 10.3133333333333  6.11538461538462 11.73  C 7.38461538461539 10.3133333333333  6.80769230769231 8.5  6.57692307692308 7.65  C 9.75 9.29333333333333  12.4615384615385 12.92  9.28846153846154 15.98  C 8.94230769230769 16.2633333333333  9.28846153846154 16.83  9.86538461538462 16.66  C 18.4615384615385 11.8433333333333  12 4.64666666666667  10.8461538461538 3.79666666666667  C 11.1923076923077 4.64666666666667  11.3076923076923 6.00666666666667  10.5576923076923 6.68666666666667  C 9.23076923076923 1.87  6.05769230769231 0.906666666666667  6.05769230769231 0.906666666666667  C 6.34615384615385 3.34333333333333  4.61538461538462 6.06333333333333  2.88461538461538 8.10333333333333  C 2.82692307692308 7.08333333333333  2.76923076923077 6.40333333333333  2.25 5.49666666666667  C 2.13461538461538 7.25333333333333  0.692307692307692 8.72666666666667  0.346153846153845 10.54  Z " fill-rule="nonzero" fill="#f59a23" stroke="none" transform="matrix(1 0 0 1 32 455 )" />
  </g>
</svg>