<?xml version="1.0" encoding="utf-8"?>
<svg version="1.1" xmlns:xlink="http://www.w3.org/1999/xlink" width="8px" height="19px" xmlns="http://www.w3.org/2000/svg">
  <g transform="matrix(1 0 0 1 -32 -490 )">
    <path d="M 5.30129167285156 16.9844166728516  C 5.11525 18.1244166728516  4.04808332714844 19  2.84554167285156 19  L 1.49416667285156 19  C 1.09991667285156 19  0.803041672851563 18.696  0.830750000000001 18.3215416728516  C 0.832315742873677 18.3027118303706  0.83469295220637 18.2839582859522  0.837875000000001 18.2653333271484  L 3.48125 2.01558332714844  C 3.66808332714844 0.875583327148437  4.73525 0  5.93779167285156 0  L 7.28916667285156 0  C 7.68341667285156 0  7.98029167285156 0.304  7.95258332714844 0.678458327148438  C 7.95101758427476 0.697288169629407  7.94864037494207 0.716041714047752  7.94545832714844 0.734666672851563  L 5.30129167285156 16.9844166728516  Z " fill-rule="nonzero" fill="#f59a23" stroke="none" transform="matrix(1 0 0 1 32 490 )" />
  </g>
</svg>