<?xml version="1.0" encoding="utf-8"?>
<svg version="1.1" xmlns:xlink="http://www.w3.org/1999/xlink" width="14px" height="19px" xmlns="http://www.w3.org/2000/svg">
  <g transform="matrix(1 0 0 1 -29 -530 )">
    <path d="M 4.1768484840562 14.633040070988  C 4.1768484840562 15.0526482055928  4.51691190458884 15.3928586387078  4.93652 15.39304  L 10.2892 15.39304  C 11.1288208694348 15.3930399927899  11.809348049692 16.0735671730471  11.809348049692 16.9130399927899  C 11.809348049692 16.9416838213838  11.8085383764514 16.9703219270898  11.80692 16.99892  L 11.75524 17.90332  C 11.7322805300378 18.3054633368984  11.3995581851451 18.6198492800184  10.99676 18.62  L 2.38064 18.62  C 1.54093092773551 18.6200000183603  0.860403747478312 17.9394728381031  0.860403747478312 17.1000000183603  C 0.860403747478312 17.0372464693234  0.864289935935935 16.9745531436795  0.87204 16.91228  L 1.82584 9.2378  C 1.92073762231236 8.47525854565335  2.56981897863321 7.9034798433265  3.33824 7.90552  C 4.58008 7.90856  5.39024 7.90704  5.77024 7.90172  L 8.55032 7.90172  C 9.31134023373304 7.90168285210067  9.95504379958226 7.33884820042727  10.05664 6.58464  L 10.33784 4.4954  C 10.342336198367 4.46189433022409  10.344591812106 4.42812599593194  10.344591812106 4.39431999488349  C 10.344591812106 3.97461802411321  10.0043819679447 3.63436870083279  9.58468 3.63432  L 3.17788 3.63432  C 2.75766795717877 3.63432014883337  2.41740436705018 3.29405655870478  2.41740436705018 2.87432014883337  C 2.41740436705018 2.85987128933895  2.41781641217925 2.84542536806431  2.41864 2.831  L 2.4764 1.81412  C 2.52194842978549 1.00924080503723  3.18795303728429 0.379921478872868  3.99412 0.38  L 12.7212 0.38  C 13.1412005100122 0.379999954112575  13.4814641001408 0.720263544241172  13.4814641001408 1.13999995411257  C 13.4814641001408 1.17073802170185  13.4795993080342 1.20144778036803  13.47588 1.23196  L 12.42632 9.8192  C 12.3330082531946 10.5815081775868  11.6857179393051 11.1544497803595  10.91772 11.15452  L 5.9762 11.15452  C 5.21748566441928 11.1545213404837  4.57496322114133 11.7140121101225  4.47064 12.46552  L 4.18412 14.52816  C 4.17927813430474 14.5629102646638  4.1768484840562 14.597954111437  4.1768484840562 14.633040070988  Z " fill-rule="nonzero" fill="#f4b632" stroke="none" transform="matrix(1 0 0 1 29 530 )" />
  </g>
</svg>