<?xml version="1.0" encoding="utf-8"?>
<svg version="1.1" xmlns:xlink="http://www.w3.org/1999/xlink" width="14px" height="19px" xmlns="http://www.w3.org/2000/svg">
  <g transform="matrix(1 0 0 1 -29 -570 )">
    <path d="M 0.260630379205971 17.4166667689547  C 0.260630379205971 17.3863006716674  0.261503947466422 17.3559408583565  0.26325 17.3256250016967  L 0.274333327148437 17.1308750018941  C 0.322568548410745 16.2933885171486  1.01562565534529 15.6388731636672  1.8545 15.6385833305547  L 6.6045 15.6385833305547  C 7.37022223486821 15.6385599881605  8.0262014449446 15.090577355908  8.1625 14.3370833318736  L 8.41345832714844 12.9461250061347  C 8.43018630418673 12.8533793779767  8.43860039630354 12.7593254397647  8.43860039630354 12.6650833220165  C 8.43860039630354 11.7907071623779  7.7298344812939 11.0818556278748  6.85545832714844 11.081750008024  L 4.63008332714844 11.081750008024  C 3.75538786022584 11.08175002692  3.04650538356033 10.3728675509728  3.04650538356033 9.49841670137599  C 3.04650538356033 9.46805062933659  3.04737895036813 9.43769084125793  3.049125 9.40737500972073  L 3.06020832714844 9.21262500991808  C 3.10846115735409 8.37483348703975  3.80198674218039 7.72020368170054  4.64116667285156 7.72033333857874  L 8.06116667285156 7.72033333857874  C 8.79229359735767 7.72033672567955  9.42835184778344 7.21973532538877  9.60016667285156 6.50908333980617  L 9.86775 5.3999583409301  C 9.8972164628872 5.2781027717798  9.91210611799176 5.15317876076799  9.91210611799176 5.0278110928218  C 9.91210611799176 4.15891123289681  9.21186478212694 3.45234928025159  8.343 3.44454168861476  L 3.818625 3.40416668865567  C 2.94967125611405 3.39648201015494  2.24929349044267 2.68988299758035  2.24929349044267 1.82089527513156  C 2.24929349044267 1.79050853355852  2.25016824689147 1.76012808878886  2.25191667285156 1.72979169035241  L 2.265375 1.49229169059308  C 2.31362782979528 0.654500174866211  3.00715340363897 -0.00012962778929917  3.84633332714844 0  L 8.4665 0  L 11.8184166728516 0.0554166920491432  C 12.6825380459948 0.0697126369230911  13.3755590623836 0.774293762599857  13.3755590623836 1.63853338217854  C 13.3755590623836 1.71677448820091  13.3697595957825 1.79490797832484  13.3582083271484 1.872291690208  L 11.0037916728516 17.6502083285163  C 10.888119608651 18.425848035308  10.2220924316093 18.99995133987  9.437875 19  L 1.84341667285156 19  C 0.969179496779278 18.9996979555444  0.260630379205971 18.2909039963184  0.260630379205971 17.4166667689547  Z " fill-rule="nonzero" fill="#f4da32" stroke="none" transform="matrix(1 0 0 1 29 570 )" />
  </g>
</svg>