<?xml version="1.0" encoding="utf-8"?>
<svg version="1.1" xmlns:xlink="http://www.w3.org/1999/xlink" width="20px" height="20px" xmlns="http://www.w3.org/2000/svg">
  <g transform="matrix(1 0 0 1 -140 -137 )">
    <path d="M 20 10  C 20 4.47715250169207  15.5228474983079 0  10 0  C 4.4772222265625 0  0 4.4772222265625  0 10  C 0 15.5227777734375  4.4772222265625 20  10 20  C 15.5227777734375 20  20 15.5227777734375  20 10  Z M 10 18.3333333398437  C 5.3977777734375 18.3333333398437  1.66666666015625 14.6022222265625  1.66666666015625 10  C 1.66666666015625 5.3977777734375  5.3977777734375 1.66666666015625  10 1.66666666015625  C 14.6022222265625 1.66666666015625  18.3333333398437 5.3977777734375  18.3333333398437 10  C 18.3333333398437 14.6023729188522  14.6023729188522 18.3333333398437  10 18.3333333398437  Z M 15.4166666601563 10  C 15.4166666601563 9.53976271250616  15.0435706273376 9.16666667094306  14.5833333398437 9.16666666015625  C 14.1230960447225 9.16666666015625  13.75 9.53976270487874  13.75 10  C 13.75 12.0710678118655  12.0710678118655 13.75  10 13.75  C 7.92893218813452 13.75  6.25 12.0710678118655  6.25 10  C 6.24992954846921 9.53981253163043  5.87685414368427 9.16679423774755  5.41666666992188 9.16679423774755  C 4.95647919615948 9.16679423774755  4.58340379137454 9.53981253163043  4.58333333984375 10  C 4.58333333984375 12.9916666601562  7.00833333984375 15.4166666601563  10 15.4166666601563  C 12.9916666601562 15.4166666601563  15.4166666601563 12.9916666601563  15.4166666601563 10  Z M 12.2916666601563 7.38333333984375  C 12.8347466677521 7.38333333984375  13.275 6.94308000759588  13.275 6.4  C 13.275 5.85691999240412  12.8347466677521 5.41666666015625  12.2916666601563 5.41666666015625  C 11.7485866525604 5.41666666015625  11.3083333203125 5.85691999240412  11.3083333203125 6.4  C 11.3083333203125 6.94308000759588  11.7485866525604 7.38333333984375  12.2916666601563 7.38333333984375  Z M 7.70833333984375 7.38333333984375  C 8.25141334743963 7.38333333984375  8.6916666796875 6.94308000759588  8.6916666796875 6.4  C 8.6916666796875 5.85691999240412  8.25141334743963 5.41666666015625  7.70833333984375 5.41666666015625  C 7.16525333224786 5.41666666015625  6.725 5.85691999240412  6.725 6.4  C 6.725 6.94308000759588  7.16525333224786 7.38333333984375  7.70833333984375 7.38333333984375  Z " fill-rule="nonzero" fill="#686666" stroke="none" transform="matrix(1 0 0 1 140 137 )" />
  </g>
</svg>