<?xml version="1.0" encoding="utf-8"?>
<svg version="1.1" xmlns:xlink="http://www.w3.org/1999/xlink" width="15px" height="17px" xmlns="http://www.w3.org/2000/svg">
  <g transform="matrix(1 0 0 1 -25 -317 )">
    <path d="M 13.7800522748162 2.6130029296875  C 11.7262775735294 2.52257421875  9.76010828354779 1.818302734375  7.93565314797794 0.519064453125  L 7.58984834558824 0.27312890625  L 7.24494399126838 0.519064453125  C 5.42160213694853 1.8180869140625  3.45523638556985 2.52257421875  1.41441176470588 2.6125546875  L 0.76975643382353 2.6125546875  L 0.76975643382353 8.119658203125  C 0.76975643382353 12.1536552734375  3.51402745863971 15.60805859375  7.44368106617647 16.5199326171875  L 7.61514275045956 16.547806640625  L 7.73830767463235 16.5199326171875  C 11.6670608340993 15.60805859375  14.4108898207721 12.1536552734375  14.4108898207721 8.119658203125  L 14.4108898207721 2.6125546875  L 13.7800850183824 2.61301953125  Z M 11.3324052159926 6.3364677734375  L 6.94922047334559 10.948  C 6.83923483455882 11.050896484375  6.66623420266544 11.0441064453125  6.56451631433823 10.93259375  L 3.84215073529412 8.001787109375  C 3.74067842371324 7.8902578125  3.74737448299632 7.7148291015625  3.85734375 7.61168359375  L 3.92685834099265 7.5466220703125  C 4.03684397977941 7.4437255859375  4.20984461167279 7.450515625  4.3115625 7.5620283203125  L 6.76814855238971 10.2067734375  L 10.8766147748162 5.88219921875  C 10.9816725068934 5.773857421875  11.15490234375 5.77249609375  11.2615317670037 5.8790283203125  L 11.3288197954963 5.94634765625  C 11.4358912568934 6.0526474609375  11.4372337431066 6.2283251953125  11.3324052159926 6.336451171875  Z " fill-rule="nonzero" fill="#e02b32" stroke="none" transform="matrix(1 0 0 1 25 317 )" />
  </g>
</svg>