<?xml version="1.0" encoding="utf-8"?>
<svg version="1.1" xmlns:xlink="http://www.w3.org/1999/xlink" width="91px" height="22px" xmlns="http://www.w3.org/2000/svg">
  <g transform="matrix(1 0 0 1 -5 -728 )">
    <path d="M 7 739  A 9 9 0 0 1 16 730 L 85 730  A 9 9 0 0 1 94 739 A 9 9 0 0 1 85 748 L 16 748  A 9 9 0 0 1 7 739 Z " fill-rule="nonzero" fill="#e02b32" stroke="none" />
    <path d="M 6 739  A 10 10 0 0 1 16 729 L 85 729  A 10 10 0 0 1 95 739 A 10 10 0 0 1 85 749 L 16 749  A 10 10 0 0 1 6 739 Z " stroke-width="2" stroke="#f2f2f2" fill="none" stroke-opacity="0.996078431372549" />
  </g>
</svg>