<?xml version="1.0" encoding="utf-8"?>
<svg version="1.1" xmlns:xlink="http://www.w3.org/1999/xlink" width="19px" height="19px" xmlns="http://www.w3.org/2000/svg">
  <g transform="matrix(1 0 0 1 -302 -124 )">
    <path d="M 18.6731535957031 9.28273430761719  C 18.7058074677734 8.70770318164062  18.5633980185547 8.15328006933594  18.2641828818359 7.68351357617188  C 17.7921289267578 6.91954754199219  16.9737468066406 6.43706366210938  16.0694489082031 6.38722245898437  C 16.0129342167969 6.37928983203125  15.9564405253906 6.37534451855469  15.8982679619141 6.37534451855469  L 12.7769282246094 6.37284722070313  C 12.9132937753906 5.7786141171875  12.9823159765625 5.16998475488281  12.9823159765625 4.5546819453125  C 12.9823159765625 3.9758733828125  12.9164206630859 3.38287841796875  12.7863298466797 2.79198205859375  C 12.7771590605469 2.75007348242187  12.7638121044922 2.7098227578125  12.7467087119141 2.67167063867188  C 12.4222686787109 1.49653038769531  11.3649425498047 0.685661161132813  10.1364144951172 0.685661161132813  C 8.642878109375 0.685661161132813  7.42771799023438 1.90084225976562  7.42771799023438 3.39435766601562  C 7.42771799023438 3.46275029785156  7.43042514453125 3.5311429296875  7.43604935058594 3.59974541796875  C 7.39101388671875 4.77301794042969  6.77757878515625 5.85451968359375  5.78990442675781 6.49880384667969  C 5.49362730078125 6.69208280175781  5.40999900488281 7.08888178027344  5.60329893945313 7.38515890625  C 5.79636803808594 7.68124715527344  6.19295716015625 7.76527418457031  6.48965399902344 7.57176439355469  C 7.83931194042969 6.69145325292969  8.67230015527344 5.20668891992187  8.71796520898437 3.59972443847656  C 8.71859477832031 3.57240095703125  8.71775535253906 3.54509847558594  8.71504817773437 3.51777499414062  C 8.7108720078125 3.47649598730469  8.70879442285156 3.43540583691406  8.70879442285156 3.39433668652344  C 8.70879442285156 2.60722334082031  9.34932214941406 1.96669563476562  10.1364354746094 1.96669563476562  C 10.8044965390625 1.96669563476562  11.3766316132813 2.42206588964844  11.5273724228516 3.07407282324219  C 11.5346754804688 3.10555147460937  11.5442659589844 3.13600184375  11.5561439199219 3.16540291015625  C 11.6524686025391 3.6332806953125  11.7012605234375 4.10013015722656  11.7012605234375 4.55468198632812  C 11.7012605234375 5.32343278027344  11.5736460458984 6.07948716699219  11.3219846708984 6.80217419433594  C 11.2538018955078 6.99795046777344  11.2846719775391 7.2146075703125  11.4045636845703 7.38348007519531  C 11.5246652480469 7.55258341601562  11.7189935058594 7.6530842890625  11.9264588427734 7.65329414550781  L 15.8891181552734 7.65537173046875  C 15.9183093652344 7.66078605957031  15.9477104316406 7.66412280371094  15.9773213544922 7.6651720859375  C 16.47189303125 7.68561222265625  16.9193516591797 7.94436679882812  17.1791555175781 8.36429208886719  C 17.3399065185547 8.61679288964844  17.4137344794922 8.91390944140625  17.3930844658203 9.22437294921875  C 17.39142659375 9.24376380371094  17.3905871679688 9.26357437109375  17.3907970244141 9.28338493847656  C 17.3907970244141 9.30090806445313  17.3916364501953 9.31820033398437  17.3930844658203 9.33530374707031  C 17.3932943222656 9.34218707128906  17.3924548964844 9.34886055957031  17.3907970244141 9.35532417089844  C 17.3887194394531 9.36304694140625  17.3868307109375 9.37116842480469  17.3849629824219 9.37910105175781  L 15.8474404150391 16.1547141787109  C 15.8286791298828 16.1809883574219  15.81178559375 16.2089204287109  15.7972004785156 16.2376919257812  C 15.6754410224609 16.4789233759766  15.4965373261719 16.6782672089844  15.2774039052734 16.8154512060547  C 15.0570113251953 16.9551534804687  14.8045105244141 17.0331366113281  14.5440980966797 17.0423073974609  C 14.5265749707031 17.0410482587891  4.00787666503907 17.0377115146484  4.00787666503907 17.0377115146484  C 3.99828616601563 17.0372918017578  3.98869566699219 17.0370819453125  3.97910516796875 17.0370819453125  C 3.97910516796875 17.0370819453125  1.70242175 17.0406285458984  1.66750143652344 17.0464625878906  C 1.62788030175782 17.0464625878906  1.59682136328125 17.0156135058594  1.59682136328125 16.9764120839844  L 1.60297020019532 8.43830892675781  C 1.60297020019532 8.39931736132812  1.63465870800782 8.36762885351562  1.66479428222657 8.36741899707031  L 1.69033397363282 8.36991629492187  C 1.71442564941407 8.37262344921875  1.74475008007813 8.37575033691406  1.76269291894532 8.37388260839844  L 3.48182633691407 8.36932870507812  L 3.48182633691407 15.3290080419922  C 3.48182633691407 15.6828491416016  3.76851296386719 15.9695357685547  4.12235406347657 15.9695357685547  C 4.47619516308594 15.9695357685547  4.76288179003907 15.6828491416016  4.76288179003907 15.3290080419922  L 4.76288176953125 7.92808177050781  C 4.76288176953125 7.89160850292969  4.76288176953125 7.75106678222656  4.76288176953125 7.71457253515625  C 4.76288176953125 7.36073143554688  4.47619514257813 7.08029856347656  4.12235404296875 7.08029856347656  C 4.0915049609375 7.08029856347656  1.71171845410156 7.08655231835938  1.67367125292969 7.08655231835938  C 0.928361565429688 7.08655231835938  0.3219357265625 7.69289421875  0.3219357265625 8.43788911132813  L 0.315786889648438 16.9759922685547  C 0.315786889648438 17.7211970175781  0.922233728515625 18.3275179384766  1.66752241601563 18.3275179384766  C 1.71965108105469 18.3275179384766  3.95222239941406 18.3181372958984  3.95222239941406 18.3181372958984  C 3.96160304199219 18.3185570087891  3.97119354101563 18.3187668652344  3.98057418359375 18.3187668652344  C 3.98057418359375 18.3187668652344  14.4694727099609 18.3243910507813  14.4909411494141 18.3243910507813  C 15.0132560205078 18.3243910507813  15.5224128125 18.1767771289062  15.9602809414062 17.8992403085938  C 16.3624942490234 17.6473690771484  16.6940064833984 17.286434796875  16.9208626748047 16.8540019765625  C 16.9959287744141 16.7387061523438  17.0528421992187 16.6104621054688  17.0901758720703 16.4722288261719  C 17.0924633134766 16.463687609375  17.0945618984375 16.4553352900391  17.0964296269531 16.4467940732422  L 18.6320844453125 9.67223022851563  C 18.6648222558594 9.54482560742187  18.6783790478516 9.4141052421875  18.6731535957031 9.28273430761719  Z " fill-rule="nonzero" fill="#999999" stroke="none" transform="matrix(1 0 0 1 302 124 )" />
  </g>
</svg>