<?xml version="1.0" encoding="utf-8"?>
<svg version="1.1" xmlns:xlink="http://www.w3.org/1999/xlink" width="5px" height="3px" xmlns="http://www.w3.org/2000/svg">
  <g transform="matrix(1 0 0 1 -310 -136 )">
    <path d="M 4.4978804296875 1.41407726855469  C 4.68700421484375 1.11884942480469  4.60110945703125 0.729983073242188  4.30835793164063 0.5371028515625  C 4.01499783691406 0.344453465820312  3.61945799707031 0.42638191015625  3.42324103125 0.716824994140625  C 3.42053387695312 0.720791307617187  3.14404631835938 1.1219553125  2.72246315625 1.1219553125  C 2.312548078125 1.1219553125  2.05752897949219 0.750821943359375  2.04023670996094 0.724757621093749  C 1.85216222753906 0.428879228515624  1.460798578125 0.339018157226562  1.16179329785156 0.52438546484375  C 0.861340001953126 0.711200808593748  0.768960632812501 1.10611105859375  0.955587099609376 1.40656435449219  C 1.18557017871094 1.77666942089843  1.81629752929688 2.403010765625  2.72246315625 2.403010765625  C 3.62403290039063 2.403010765625  4.26269287792969 1.78124432421875  4.4978804296875 1.41407726855469  Z " fill-rule="nonzero" fill="#999999" stroke="none" transform="matrix(1 0 0 1 310 136 )" />
  </g>
</svg>