<?xml version="1.0" encoding="utf-8"?>
<svg version="1.1" xmlns:xlink="http://www.w3.org/1999/xlink" width="16px" height="15px" xmlns="http://www.w3.org/2000/svg">
  <g transform="matrix(1 0 0 1 -73 -166 )">
    <path d="M 5.11450053782895 14.4389097795025  C 4.83780881661184 14.5686090326891  4.54135338075658 14.6334586592825  4.25477981167763 14.6334586415502  C 3.86938776398026 14.6334586415502  3.49387756414474 14.5222878531044  3.17765843256579 14.2999462939453  C 2.60451127549342 13.9108485521176  2.32781955427632 13.2623523039165  2.44640170970395 12.6138560734478  L 2.90096671134868 10.1125134220806  C 2.96025779851974 9.78826530684622  2.84167562417763 9.46401717387952  2.59462942763158 9.24167561472039  L 0.647905474506579 7.46294307051809  C 0.143931252467105 6.99973146972656  -0.0339420090460526 6.32344254214638  0.183458643914474 5.69347475868627  C 0.400859296875 5.06350697522615  0.974006435032895 4.6095596068051  1.67561761430921 4.51691730083265  L 4.35359829029605 4.15561223838405  C 4.69946294654605 4.10929107653166  4.99591838240132 3.90547798211349  5.14414608141447 3.61828679636102  L 6.33984961595395 1.33928572188528  C 6.65606874753289 0.737110635536595  7.28850697286184 0.366541358449836  8 0.366541358449836  C 8.71149302713816 0.366541358449836  9.3439312524671 0.737110635536595  9.65026853618421 1.3300214895148  L 10.8558539185855 3.60902256399054  C 11.013963484375 3.89621374974301  11.3104189013158 4.1000268618935  11.6464017097039 4.14634800601357  L 14.3243823856908 4.50765306846217  C 15.0259935649671 4.60029539216694  15.599140703125 5.05424276058799  15.8165413560855 5.68421052631579  C 16.0339420090461 6.3141783097759  15.8560687475329 6.99046723735609  15.3520945254934 7.45367883814762  L 13.4152524202303 9.22314714997944  C 13.1682062425987 9.44548872687089  13.0496240682566 9.77900107447574  13.1089151365132 10.0939849573396  L 13.5634801381579 12.5953276087068  C 13.6820623125 13.2530880892784  13.4053705723684 13.8923200873766  12.8322234152961 14.2814178292044  C 12.2590762582237 14.6705155710321  11.5179377064145 14.7168367328845  10.8953813100329 14.411117082391  L 8.49409237417763 13.2530880715461  C 8.187755109375 13.1048603536184  7.82212673848684 13.1048603536184  7.51578947368421 13.2530880715461  L 5.11450053782895 14.4389097795025  Z " fill-rule="nonzero" fill="#f59a23" stroke="none" transform="matrix(1 0 0 1 73 166 )" />
  </g>
</svg>