<?xml version="1.0" encoding="utf-8"?>
<svg version="1.1" xmlns:xlink="http://www.w3.org/1999/xlink" width="26px" height="19px" xmlns="http://www.w3.org/2000/svg">
  <g transform="matrix(1 0 0 1 -16 -136 )">
    <path d="M 25.9342847269007 6.01853190636719  C 25.9342847269007 5.72466769413138  25.7694258566041 5.45499057962227  25.506103046729 5.31810978296773  L 13.2063308971963 0.0962635348864327  C 13.0550976722736 0.0336217301681011  12.8847177482871 0.0336217301681016  12.7334845233645 0.0962635348864327  L 0.433712373831776 5.31810978296773  C 0.16732800578219 5.45397891791226  0 5.72530184727986  0 6.02137914683195  C 0 6.31745644638404  0.16732800578219 6.58877937575164  0.433712373831776 6.72464851069618  L 12.7334845233645 11.9464947587775  C 12.8822091277093 12.0115511122249  13.0518398629449 12.0115511122249  13.2005644672897 11.9464947587775  L 22.7670539252336 7.88062974527367  L 22.7670539252336 12.0376065828589  C 22.2257604879613 12.3617152685206  21.8951697521002 12.9414521341974  21.8951697521002 13.5665768259273  C 21.8951697521002 14.1917015176572  22.2257604879613 14.771438383334  22.7670539252336 15.0955470689957  L 22.7670539252336 16.5476417179941  L 24.0241333084112 16.5476417179941  L 24.0241333084112 15.0955470689957  C 24.5654267456836 14.771438383334  24.8960174815446 14.1917015176572  24.8960174815446 13.5665768259273  C 24.8960174815446 12.9414521341974  24.5654267456836 12.3617152685206  24.0241333084112 12.0376065828589  L 24.0241333084112 7.35104228049041  L 25.506103046729 6.71895402976665  C 25.7694258566041 6.58207323311211  25.9342847269007 6.312396118603  25.9342847269007 6.01853190636719  Z M 12.9180099439252 12.9942806895681  L 12.9699077009346 12.9942806895681  C 12.7813200779479 12.9938895263174  12.5948377779377 12.9551198200213  12.4220978878505 12.8803909233101  L 4.75276035514019 9.62314332776342  L 4.75276035514019 14.1217894825811  C 4.75276035514019 17.8061237385121  10.3461869719626 18.9108545708901  12.0934119813084 18.9108545708901  L 13.8233377570093 18.9108545708901  C 15.1323149158878 18.9108545708901  21.1639894018692 17.8061237385121  21.1639893831776 14.1217894825811  L 21.1639893831776 9.62314332776342  L 13.4946518504673 12.8860854042396  C 13.3126416807428 12.9629679805993  13.1158904747505 12.9998843972343  12.9180099439252 12.9942806895681  Z " fill-rule="nonzero" fill="#ffffff" stroke="none" transform="matrix(1 0 0 1 16 136 )" />
  </g>
</svg>