<?xml version="1.0" encoding="utf-8"?>
<svg version="1.1" xmlns:xlink="http://www.w3.org/1999/xlink" width="23px" height="22px" xmlns="http://www.w3.org/2000/svg">
  <g transform="matrix(1 0 0 1 -332 -78 )">
    <path d="M 7.50429761904762 21.4318499914062  C 6.5823809438244 22.00715  5.37679761904762 21.7095999828125  4.81685715141369 20.77295  C 4.55141357501048 20.3282305102605  4.46891343337411 19.7971448189656  4.58685715141369 19.2923500085937  L 5.78011904761905 14.1814750085938  C 5.80907260689946 14.0602706856375  5.76942454162282 13.9328874907496  5.6768928656994 13.8498250085937  L 1.77100000855655 10.431575  C 0.959702398065475 9.722075  0.866059540922618 8.481275  1.55961904761905 7.65407500859375  C 1.89294912626893 7.2554618460843  2.37105424526402 7.00715234696795  2.88759522953869 6.96437500859375  L 8.01358333333333 6.545  C 8.12529761904762 6.53564999140625  8.22523808668155 6.461675  8.27096429427083 6.34919999140625  L 10.2459523723958 1.49792500859375  C 10.6574880866815 0.487300008593749  11.8020119047619 0.00467500859374885  12.8005952295387 0.428999991406249  C 13.2768396844951 0.632274966484486  13.6536504455071 1.01655698152311  13.8487380866815 1.49792500859375  L 15.8237261904762 6.34892500859375  C 15.8694523723958 6.461675  15.9693928656994 6.535925  16.0811071514137 6.545  L 21.2076428656994 6.96464999140625  C 22.282619047619 7.0526499828125  23.0785833333333 8.007725  22.9934285799851 9.09205000859375  C 22.9534270978139 9.60950436216508  22.7130847214736 10.090600684577  22.3239642942708 10.4321249914062  L 18.418071437128 13.850375  C 18.3271666837798 13.9298500085937  18.2860952552083 14.0585500085937  18.3148452295387 14.1817499914062  L 19.5081071514137 19.2926249914062  C 19.7550833333333 20.3499999828125  19.113821437128 21.4153499914062  18.0670476190476 21.6702749914063  C 17.5629540001783 21.7931495940472  17.0308398555752 21.7073319859184  16.5903928656994 21.432125  L 12.2015000085565 18.693125  C 12.1072448541468 18.6337051704626  11.9874456306002 18.6337051704626  11.8931904761905 18.693125  L 7.50402380096726 21.432125  Z " fill-rule="nonzero" fill="#ffea00" stroke="none" transform="matrix(1 0 0 1 332 78 )" />
  </g>
</svg>