<?xml version="1.0" encoding="utf-8"?>
<svg version="1.1" xmlns:xlink="http://www.w3.org/1999/xlink" width="26px" height="25px" xmlns="http://www.w3.org/2000/svg">
  <g transform="matrix(1 0 0 1 -331 -76 )">
    <path d="M 7.1069375 22.5920138888889  L 13 18.2396990740741  L 18.8930625 22.5920138888889  C 19.0164448576023 22.6818884317945  19.1749481222796 22.7088801812408  19.32125 22.6649305555556  C 19.563375 22.5920138888889  19.69175 22.3554398148148  19.621875 22.1366898148148  L 17.363125 15.0070601851852  L 23.3894375 10.5267361111111  C 23.4967207327507 10.44930464457  23.560909433304 10.3258004436339  23.5625 10.19375  C 23.5625 9.96203703703704  23.3618125 9.76516203703704  23.102625 9.76435185185185  L 15.6885625 9.75300925925926  L 13.442 2.73680555555556  C 13.3952495288328 2.59861248273523  13.2835278739347 2.49205274748003  13.143 2.45162037037037  C 12.89275 2.37627314814815  12.631125 2.5099537037037  12.558 2.73680555555556  L 10.3114375 9.75300925925926  L 2.897375 9.76516203703704  C 2.75319750741102 9.76425527470529  2.6164820232039 9.82898774289888  2.5260625 9.94097222222222  C 2.46888724219208 10.0129719851322  2.43777754045451 10.1021184235531  2.43777754045451 10.1939572805813  C 2.43777754045451 10.3262764551498  2.50220343132059 10.4503588560408  2.6105625 10.5267361111111  L 8.6376875 15.0070601851852  L 6.378125 22.1366898148148  C 6.33770208138054 22.2643876801874  6.36358714437592 22.4037687886241  6.4471875 22.5085648148148  C 6.60075 22.7046296296296  6.9005625 22.7443287037037  7.1069375 22.5920138888889  Z M 8.0738125 23.8947916666667  C 7.15770447570223 24.5697904772628  5.86951570071509 24.3968468952065  5.1650625 23.5042824074074  C 4.75283922805393 22.9790717907214  4.62670079156579 22.285013802562  4.827875 21.6489583333333  L 6.7396875 15.6171296296296  L 1.639625 11.825462962963  C 1.12017143775938 11.4431632153278  0.813618602435931 10.8376288850209  0.813618602435931 10.1938511390162  C 0.813618602435931 9.73957315212243  0.966586795817281 9.29845109625615  1.248 8.94120370370371  C 1.64576731263438 8.43833060285887  2.25263906014424 8.1448647216979  2.8949375 8.14479166666667  L 9.1235625 8.13506944444445  L 11.0101875 2.24421296296296  C 11.3555 1.16666666666667  12.5214375 0.570370370370372  13.61425 0.901736111111113  C 14.2665064572752 1.09633210217242  14.7811186005712 1.59827008423165  14.990625 2.24421296296296  L 16.87725 8.13425925925926  L 23.105875 8.14479166666667  C 24.253125 8.14641203703704  25.1899375 9.06030092592593  25.1883125 10.1961805555556  C 25.1857598994707 10.8389648781985  24.8791845106143 11.4428613722082  24.3611875 11.825462962963  L 19.261125 15.6171296296296  L 21.1729375 21.6489583333333  C 21.5174375 22.737037037037  20.8918125 23.8858796296296  19.78925 24.2164351851852  C 19.1522078309286 24.4072992763401  18.4622189380062 24.2878258039076  17.927 23.8939814814815  L 13 20.25625  L 8.0738125 23.8939814814815  Z " fill-rule="nonzero" fill="#7f7f7f" stroke="none" transform="matrix(1 0 0 1 331 76 )" />
  </g>
</svg>